<svg width="47" height="36" viewBox="0 0 47 36" fill="none" xmlns="http://www.w3.org/2000/svg">
<mask id="mask0_2301_15" style="mask-type:luminance" maskUnits="userSpaceOnUse" x="1" y="1" width="45" height="34">
<path d="M45.6953 1.94531H1.63281V34.0534H45.6953V1.94531Z" fill="white"/>
</mask>
<g mask="url(#mask0_2301_15)">
<path d="M6.00739 9.23948C6.27206 6.9059 8.18808 5.10825 10.5262 5.00012L30.4321 5C31.1457 5.05917 31.8372 5.27664 32.457 5.63671C33.0765 5.99679 33.6089 6.49046 34.0152 7.08211C34.3815 7.62105 34.6397 8.22625 34.776 8.86409L40.6259 5.95318C40.663 5.93463 40.7041 5.92525 40.7454 5.92582C40.787 5.92639 40.8276 5.9369 40.8642 5.95647C40.9008 5.97604 40.9322 6.0041 40.9558 6.03833C40.9793 6.07254 40.9945 6.11193 40.9997 6.15318V9.45405L41 9.46555C41 9.57389 40.9678 9.67977 40.9076 9.76974C40.8475 9.85971 40.7622 9.9297 40.6622 9.97079C35.2783 12.6502 29.8958 15.3318 24.5143 18.0158L40.6259 26.0145C40.7287 26.0503 40.819 26.1156 40.8854 26.2022C40.9519 26.2888 40.9916 26.393 40.9997 26.502V29.8098C40.9997 29.8598 40.9859 29.9089 40.9597 29.9516C40.9336 29.9943 40.8961 30.0288 40.8514 30.0512C40.8069 30.0739 40.757 30.0836 40.7072 30.0792C40.6575 30.0749 40.6099 30.057 40.5696 30.0272C38.6504 29.0521 36.7047 28.133 34.7998 27.1383C34.6727 27.6005 34.5018 28.0495 34.2902 28.4794C33.9673 29.0752 33.5242 29.5968 32.9894 30.0109C32.4544 30.4253 31.839 30.7229 31.1829 30.885C30.7439 30.9778 30.2951 31.0144 29.847 30.9949L11.2937 30.9952C10.8758 30.9952 10.4555 30.9952 10.04 30.9635C7.88638 30.6401 6.22432 28.889 6.00763 26.7143V23.5159C6.02515 23.3825 6.08012 23.2568 6.16613 23.1536C6.25215 23.0504 6.36565 22.9739 6.49339 22.933C9.80216 21.2923 13.1036 19.637 16.4173 18.0036C13.0793 16.3362 9.7389 14.6735 6.39612 13.0158C6.28251 12.9654 6.18585 12.8831 6.11776 12.7789C6.04968 12.6746 6.01309 12.5528 6.01239 12.4282C6.00739 11.3677 5.99037 10.3025 6.00739 9.23948ZM9.69523 9.26147C9.49593 9.66375 9.58831 10.1292 9.5713 10.5633C13.2154 12.3697 16.8327 14.1859 20.4694 15.9802C24.0632 14.1925 27.6586 12.4047 31.2556 10.6169C31.2556 10.2927 31.2703 9.96842 31.2556 9.64176C31.2135 9.35193 31.0691 9.08699 30.8483 8.89535C30.6276 8.70374 30.3455 8.59827 30.0536 8.59827H30.041L10.8053 8.59838C10.5761 8.5907 10.3495 8.64907 10.1524 8.76658C9.95518 8.88409 9.79569 9.05583 9.69272 9.26147H9.69523ZM9.5713 25.4392C9.5882 25.8781 9.49342 26.3509 9.70488 26.7581C9.81105 26.9583 9.97074 27.1247 10.166 27.2388C10.3613 27.3529 10.5844 27.41 10.8102 27.4039L30.058 27.4041L30.0677 27.404C30.4984 27.404 30.8964 27.1722 31.1099 26.797C31.3527 26.3704 31.2412 25.8585 31.2653 25.3903C27.6626 23.6059 24.0646 21.792 20.4547 20.0271C16.824 21.8269 13.1954 23.6309 9.56892 25.4392H9.5713Z" fill="white"/>
</g>
</svg>
