<svg width="130" height="130" viewBox="0 0 130 130" fill="none" xmlns="http://www.w3.org/2000/svg">
<path d="M64.9984 10.4004L10.3984 45.0941V84.8965L64.9984 119.6L119.598 84.9066V45.0941L64.9984 10.4004ZM64.9984 75.8777L49.5711 65.1832L64.9984 54.6613L80.4258 65.1832L64.9984 75.8777ZM70.1984 45.7746V25.8684L105.116 48.0598L89.4648 58.9066L70.1984 45.7746ZM59.7984 45.7746L40.532 58.9066L24.8813 48.0598L59.7984 25.8684V45.7746ZM31.4422 65.1121L20.7984 72.3637V57.7285L31.4422 65.1121ZM40.4813 71.3785L59.7984 84.7746V104.132L24.932 81.9715L40.4813 71.3785ZM70.1984 84.7746L89.5156 71.3785L105.065 81.9715L70.1984 104.132V84.7746ZM98.5547 65.1121L109.198 57.7285V72.3637L98.5547 65.1121Z" fill="white"/>
</svg>
