<svg xmlns="http://www.w3.org/2000/svg"  viewBox="0 0 48 48" width="48px" height="48px"><linearGradient id="Y4K3cchw0VQZGphoh6lB2a" x1="30.7" x2="46.695" y1="31.343" y2="27.057" gradientUnits="userSpaceOnUse"><stop offset=".136" stop-color="#383838"/><stop offset=".337" stop-color="#565656"/><stop offset=".526" stop-color="#6b6b6b"/><stop offset=".65" stop-color="#737373"/><stop offset=".838" stop-color="#555"/><stop offset="1" stop-color="#383838"/></linearGradient><path fill="url(#Y4K3cchw0VQZGphoh6lB2a)" d="M44,17l1.624,17.862C45.826,37.084,44.076,39,41.844,39h0c-1.165,0-2.265-0.535-2.984-1.45 L29,25L44,17z"/><linearGradient id="Y4K3cchw0VQZGphoh6lB2b" x1="30.7" x2="46.695" y1="31.343" y2="27.057" gradientTransform="matrix(-1 0 0 1 48 0)" gradientUnits="userSpaceOnUse"><stop offset=".136" stop-color="#383838"/><stop offset=".337" stop-color="#565656"/><stop offset=".526" stop-color="#6b6b6b"/><stop offset=".65" stop-color="#737373"/><stop offset=".838" stop-color="#555"/><stop offset="1" stop-color="#383838"/></linearGradient><path fill="url(#Y4K3cchw0VQZGphoh6lB2b)" d="M4,17L2.376,34.862C2.174,37.084,3.924,39,6.156,39h0c1.165,0,2.265-0.535,2.984-1.45L19,25 L4,17z"/><path fill="#4d4d4d" d="M17,10.51V16H6v-3.91c0-0.96,0.46-1.88,1.25-2.44c1.16-0.82,2.56-1.37,4.08-1.57 c1.58-0.22,3.08,0.01,4.41,0.56C16.49,8.96,17,9.69,17,10.51z"/><path fill="#4d4d4d" d="M42,12.09V16H31v-5.49c0-0.82,0.51-1.55,1.26-1.87c1.33-0.55,2.83-0.78,4.41-0.56 c1.52,0.2,2.92,0.75,4.08,1.57C41.54,10.21,42,11.13,42,12.09z"/><linearGradient id="Y4K3cchw0VQZGphoh6lB2c" x1="24" x2="24" y1="31" y2="9" gradientUnits="userSpaceOnUse"><stop offset=".053" stop-color="#454545"/><stop offset=".295" stop-color="#8a8a8a"/><stop offset=".618" stop-color="#8d8d8d"/><stop offset=".898" stop-color="#989898"/><stop offset="1" stop-color="#9e9e9e"/></linearGradient><path fill="url(#Y4K3cchw0VQZGphoh6lB2c)" d="M36.668,9.078c-2.276-0.304-4.403,0.296-6.08,1.489c-0.791,0.563-1.665,0.993-2.589,1.229 C27.481,11.928,26.947,13,26.403,13h-4.805c-0.544,0-1.078-1.072-1.596-1.204c-0.924-0.236-1.797-0.666-2.589-1.229 c-1.677-1.193-3.804-1.793-6.08-1.489c-3.794,0.506-6.847,3.63-7.277,7.433C3.476,21.648,7.48,26,12.5,26 c0.536,0,1.057-0.055,1.566-0.15C14.034,26.064,14,26.277,14,26.5c0,2.485,2.015,4.5,4.5,4.5c1.956,0,3.605-1.256,4.224-3h2.551 c0.62,1.744,2.268,3,4.224,3c2.485,0,4.5-2.015,4.5-4.5c0-0.223-0.034-0.436-0.066-0.65C34.443,25.945,34.964,26,35.5,26 c5.02,0,9.024-4.352,8.444-9.489C43.515,12.708,40.461,9.585,36.668,9.078z"/><circle cx="12.5" cy="17.5" r="7" fill="#686868"/><circle cx="35.5" cy="17.5" r="7" fill="#686868"/><linearGradient id="Y4K3cchw0VQZGphoh6lB2d" x1="18.5" x2="18.5" y1="31" y2="22" gradientUnits="userSpaceOnUse"><stop offset="0" stop-color="#8a8a8a"/><stop offset=".458" stop-color="#8d8d8d"/><stop offset=".855" stop-color="#989898"/><stop offset="1" stop-color="#9e9e9e"/></linearGradient><circle cx="18.5" cy="26.5" r="4.5" fill="url(#Y4K3cchw0VQZGphoh6lB2d)"/><linearGradient id="Y4K3cchw0VQZGphoh6lB2e" x1="29.5" x2="29.5" y1="31" y2="22" gradientUnits="userSpaceOnUse"><stop offset="0" stop-color="#8a8a8a"/><stop offset=".458" stop-color="#8d8d8d"/><stop offset=".855" stop-color="#989898"/><stop offset="1" stop-color="#9e9e9e"/></linearGradient><circle cx="29.5" cy="26.5" r="4.5" fill="url(#Y4K3cchw0VQZGphoh6lB2e)"/><circle cx="35.5" cy="21" r="2" fill="#575757"/><circle cx="35.5" cy="14" r="2" fill="#575757"/><circle cx="39" cy="17.5" r="2" fill="#575757"/><circle cx="32" cy="17.5" r="2" fill="#575757"/><radialGradient id="Y4K3cchw0VQZGphoh6lB2f" cx="33.565" cy="11.967" r="5.577" gradientTransform="matrix(.75 0 0 .75 8.875 3.5)" gradientUnits="userSpaceOnUse"><stop offset="0" stop-color="#ddc65d"/><stop offset="1" stop-color="#f5ab00"/></radialGradient><circle cx="35.5" cy="14" r="1.5" fill="url(#Y4K3cchw0VQZGphoh6lB2f)"/><radialGradient id="Y4K3cchw0VQZGphoh6lB2g" cx="38.565" cy="16.185" r="4.332" gradientTransform="matrix(.75 0 0 .75 9.75 4.375)" gradientUnits="userSpaceOnUse"><stop offset="0" stop-color="#dd725d"/><stop offset="1" stop-color="#f50000"/></radialGradient><circle cx="39" cy="17.5" r="1.5" fill="url(#Y4K3cchw0VQZGphoh6lB2g)"/><radialGradient id="Y4K3cchw0VQZGphoh6lB2h" cx="31.565" cy="16.185" r="4.332" gradientTransform="matrix(.75 0 0 .75 8 4.375)" gradientUnits="userSpaceOnUse"><stop offset="0" stop-color="#00ccf5"/><stop offset="1" stop-color="#3aa6dd"/></radialGradient><circle cx="32" cy="17.5" r="1.5" fill="url(#Y4K3cchw0VQZGphoh6lB2h)"/><radialGradient id="Y4K3cchw0VQZGphoh6lB2i" cx="35.065" cy="19.685" r="4.332" gradientTransform="matrix(.75 0 0 .75 8.875 5.25)" gradientUnits="userSpaceOnUse"><stop offset="0" stop-color="#87db00"/><stop offset="1" stop-color="#70c352"/></radialGradient><circle cx="35.5" cy="21" r="1.5" fill="url(#Y4K3cchw0VQZGphoh6lB2i)"/><radialGradient id="Y4K3cchw0VQZGphoh6lB2j" cx="18.5" cy="26.5" r="4.5" gradientUnits="userSpaceOnUse"><stop offset=".474" stop-color="#3b3b3b"/><stop offset=".679" stop-color="#585858" stop-opacity=".611"/><stop offset=".871" stop-color="#6c6c6c" stop-opacity=".246"/><stop offset="1" stop-color="#737373" stop-opacity="0"/></radialGradient><circle cx="18.5" cy="26.5" r="4.5" fill="url(#Y4K3cchw0VQZGphoh6lB2j)"/><radialGradient id="Y4K3cchw0VQZGphoh6lB2k" cx="29.5" cy="26.5" r="4.5" gradientUnits="userSpaceOnUse"><stop offset=".474" stop-color="#3b3b3b"/><stop offset=".679" stop-color="#585858" stop-opacity=".611"/><stop offset=".871" stop-color="#6c6c6c" stop-opacity=".246"/><stop offset="1" stop-color="#737373" stop-opacity="0"/></radialGradient><circle cx="29.5" cy="26.5" r="4.5" fill="url(#Y4K3cchw0VQZGphoh6lB2k)"/><radialGradient id="Y4K3cchw0VQZGphoh6lB2l" cx="18.5" cy="26.5" r="2.5" gradientTransform="matrix(1.2 0 0 1.2 -3.7 -5.3)" gradientUnits="userSpaceOnUse"><stop offset=".465" stop-color="#4d4d4d"/><stop offset=".664" stop-color="#444"/><stop offset=".986" stop-color="#2c2c2c"/><stop offset="1" stop-color="#2b2b2b"/></radialGradient><circle cx="18.5" cy="26.5" r="3" fill="url(#Y4K3cchw0VQZGphoh6lB2l)"/><radialGradient id="Y4K3cchw0VQZGphoh6lB2m" cx="27.667" cy="26.5" r="2.5" gradientTransform="matrix(1.2 0 0 1.2 -3.7 -5.3)" gradientUnits="userSpaceOnUse"><stop offset=".465" stop-color="#4d4d4d"/><stop offset=".664" stop-color="#444"/><stop offset=".986" stop-color="#2c2c2c"/><stop offset="1" stop-color="#2b2b2b"/></radialGradient><circle cx="29.5" cy="26.5" r="3" fill="url(#Y4K3cchw0VQZGphoh6lB2m)"/><linearGradient id="Y4K3cchw0VQZGphoh6lB2n" x1="24" x2="24" y1="11.8" y2="15" gradientUnits="userSpaceOnUse"><stop offset="0" stop-color="#595959"/><stop offset=".073" stop-color="#5c5c5c"/><stop offset=".458" stop-color="#656565"/><stop offset=".989" stop-color="#686868"/></linearGradient><path fill="url(#Y4K3cchw0VQZGphoh6lB2n)" d="M28,11.8V13c0,1.1-0.9,2-2,2h-4c-1.1,0-2-0.9-2-2v-1.2c0.52,0.13,1.05,0.2,1.6,0.2h4.8 C26.95,12,27.48,11.93,28,11.8z"/><path fill="#575757" d="M12,22.5c-0.827,0-1.5-0.673-1.5-1.5v-1c0-0.275-0.225-0.5-0.5-0.5H9c-0.827,0-1.5-0.673-1.5-1.5v-1 c0-0.827,0.673-1.5,1.5-1.5h1c0.275,0,0.5-0.225,0.5-0.5v-1c0-0.827,0.673-1.5,1.5-1.5h1c0.827,0,1.5,0.673,1.5,1.5v1 c0,0.275,0.225,0.5,0.5,0.5h1c0.827,0,1.5,0.673,1.5,1.5v1c0,0.827-0.673,1.5-1.5,1.5h-1c-0.275,0-0.5,0.225-0.5,0.5v1 c0,0.827-0.673,1.5-1.5,1.5H12z"/><radialGradient id="Y4K3cchw0VQZGphoh6lB2o" cx="12.5" cy="17.5" r="4.543" gradientUnits="userSpaceOnUse"><stop offset=".701" stop-color="#3b3b3b"/><stop offset=".851" stop-color="#373737"/><stop offset=".99" stop-color="#2c2c2c"/><stop offset="1" stop-color="#2b2b2b"/></radialGradient><path fill="url(#Y4K3cchw0VQZGphoh6lB2o)" d="M16,16h-1c-0.55,0-1-0.45-1-1v-1c0-0.55-0.45-1-1-1h-1c-0.55,0-1,0.45-1,1v1 c0,0.55-0.45,1-1,1H9c-0.55,0-1,0.45-1,1v1c0,0.55,0.45,1,1,1h1c0.55,0,1,0.45,1,1v1c0,0.55,0.45,1,1,1h1c0.55,0,1-0.45,1-1v-1 c0-0.55,0.45-1,1-1h1c0.55,0,1-0.45,1-1v-1C17,16.45,16.55,16,16,16z M12.5,18.5c-0.55,0-1-0.45-1-1s0.45-1,1-1s1,0.45,1,1 S13.05,18.5,12.5,18.5z"/><path fill="#4d4d4d" d="M23,21.8c-0.441,0-0.8-0.358-0.8-0.8s0.358-0.8,0.8-0.8h2c0.441,0,0.8,0.358,0.8,0.8 s-0.358,0.8-0.8,0.8H23z"/><path fill="#3c3c3c" d="M25,20.5c0.276,0,0.5,0.224,0.5,0.5s-0.224,0.5-0.5,0.5h-2c-0.276,0-0.5-0.224-0.5-0.5 s0.224-0.5,0.5-0.5H25 M25,20h-2c-0.552,0-1,0.448-1,1s0.448,1,1,1h2c0.552,0,1-0.448,1-1S25.552,20,25,20L25,20z"/><path fill="#4d4d4d" d="M23,18.8c-0.441,0-0.8-0.358-0.8-0.8s0.358-0.8,0.8-0.8h2c0.441,0,0.8,0.358,0.8,0.8 s-0.358,0.8-0.8,0.8H23z"/><path fill="#3c3c3c" d="M25,17.5c0.276,0,0.5,0.224,0.5,0.5s-0.224,0.5-0.5,0.5h-2c-0.276,0-0.5-0.224-0.5-0.5 s0.224-0.5,0.5-0.5H25 M25,17h-2c-0.552,0-1,0.448-1,1s0.448,1,1,1h2c0.552,0,1-0.448,1-1S25.552,17,25,17L25,17z"/></svg>