<svg width="130" height="133" viewBox="0 0 130 133" fill="none" xmlns="http://www.w3.org/2000/svg">
<path d="M68.1698 31.62C78.5698 31.62 87.9098 36.14 94.3298 43.32H118.75C109.91 24.24 90.5898 11 68.1698 11C45.7598 11 26.4398 24.24 17.5898 43.32H42.0098C48.4398 36.14 57.7798 31.62 68.1698 31.62Z" fill="#FFFF00"/>
<path d="M68.1698 101.831C57.7698 101.831 48.4398 97.3109 42.0098 90.1309H17.5898C26.4298 109.211 45.7498 122.451 68.1698 122.451C90.5798 122.451 109.91 109.211 118.75 90.1309H94.3298C87.9098 97.3109 78.5698 101.831 68.1698 101.831Z" fill="#FFFF00"/>
<path d="M101.739 56.4102H13.4092C12.7792 59.7502 12.4492 63.2002 12.4492 66.7202C12.4492 70.2402 12.7792 73.6902 13.4092 77.0302H101.739C102.739 73.7702 103.279 70.3102 103.279 66.7202C103.279 63.1302 102.739 59.6702 101.739 56.4102Z" fill="#FFFF00"/>
</svg>
