<svg xmlns="http://www.w3.org/2000/svg"  viewBox="0 0 48 48" width="50px" height="50px"><path fill="#ffc062" d="M24 3A10 10 0 1 0 24 23A10 10 0 1 0 24 3Z"/><path fill="#ffc062" d="M15.988,26.698c0,0,1.957,0.163,2.732-0.163c0,1.221-1.549,2.814-1.549,2.814c1.108,0.321,2.08,0,2.08,0c-0.262,3.555-2.161,10.235-2.161,11.825c0,1.59,1.385,3.67,6.911,3.67s6.912-2.406,6.912-3.548c0-5.918-3.792-12.11-3.792-12.11s0.856,0.53,1.631,0.408c0,0-0.775-0.975-0.775-1.916C27.976,25.26,34,18.964,34,13c0-5.329-20-4.523-20,0c0,5.134,3.005,7.887,3.005,10.819C17.005,25.502,15.988,26.698,15.988,26.698z"/><path fill="#d32f2f" d="M24 4A9 9 0 1 0 24 22A9 9 0 1 0 24 4Z"/><path fill="#d32f2f" d="M17.308,25.987c1.412,0,2.443-1.604,2.443-1.604s0.438,2.115-0.656,4.011c0.656,0.114,1.532-0.328,1.532-0.328c-0.255,4.048-2.443,10.174-2.443,12.362c0,1.568,0.474,3.464,5.817,3.464c4.43,0,5.998-1.568,5.998-3.428c0-5.47-3.53-9.805-4.04-11.19C27.919,23,33,19.569,33,13c0-5.953-18-3.36-18,0c0,5.512,2.928,8.107,2.928,10C17.928,25.185,17.308,25.987,17.308,25.987z"/><path fill="#ffc062" d="M18.345 7.098000000000001A4.345 6.382 0 1 0 18.345 19.862000000000002A4.345 6.382 0 1 0 18.345 7.098000000000001Z"/><path fill="#263238" d="M17.759 8.027A3.208 5.189 0 1 0 17.759 18.405A3.208 5.189 0 1 0 17.759 8.027Z"/><path fill="#0288d1" d="M17.246 9.443999999999999A2.235 3.637 0 1 0 17.246 16.718A2.235 3.637 0 1 0 17.246 9.443999999999999Z"/><path fill="#0277bd" d="M15.769,13.081c0-1.797,0.803-3.281,1.856-3.575c-0.124-0.035-0.249-0.062-0.379-0.062c-1.234,0-2.235,1.628-2.235,3.637c0,2.009,1.001,3.637,2.235,3.637c0.13,0,0.255-0.028,0.379-0.062C16.572,16.362,15.769,14.878,15.769,13.081z"/><path fill="#ffc062" d="M26.682 2.2809999999999997A4.449 6.201 0 1 0 26.682 14.683A4.449 6.201 0 1 0 26.682 2.2809999999999997Z" transform="rotate(-58.782 26.68 8.482)"/><path fill="#263238" d="M26.914 2.76A3.301 5.339 0 1 0 26.914 13.438A3.301 5.339 0 1 0 26.914 2.76Z" transform="rotate(-58.782 26.913 8.1)"/><path fill="#0288d1" d="M27.145 4.0729999999999995A2.228 3.644 0 1 0 27.145 11.361A2.228 3.644 0 1 0 27.145 4.0729999999999995Z" transform="rotate(-58.782 27.144 7.718)"/><path fill="#0277bd" d="M28.3,5.812c-1.721-1.043-3.633-1.036-4.271,0.017C24.016,5.852,24.012,5.879,24,5.903c0.873-0.5,2.355-0.348,3.726,0.483c1.683,1.02,2.55,2.663,1.991,3.719c0.222-0.127,0.415-0.286,0.545-0.5C30.899,8.554,30.021,6.855,28.3,5.812z"/><path fill="#ffc062" d="M24.485,14.425c2.999-1.779,6.447-1.509,7.7,0.604c0.666,1.123,0.579,2.54-0.099,3.888c-0.598,1.189-2.588,4.217-3.742,6.207c-0.906,1.562-1.344,2.75-2.078,4.724c-1.409-2.379-5.398-5.185-5.398-10.062C20.868,17.911,22.213,15.773,24.485,14.425z"/><path fill="#263238" d="M25.29,15.782c2.369-1.406,5.163-1.291,6.15,0.38c1.048,1.775-1.372,5.611-3.072,7.779c-1.908,2.436-1.497,0.822-1.49,0.2c0.004-0.405-0.2-0.963-0.927-0.963c-0.662,0-0.833,0.662-0.782,1.145c0.074,0.698,0.945,1.49-0.454,0.691c-0.805-0.46-2.526-1.509-2.526-4.053C22.188,19.488,23.511,16.838,25.29,15.782z"/><path fill="#0288d1" d="M27.427 16.377000000000002A3.748 2.368 0 1 0 27.427 21.113A3.748 2.368 0 1 0 27.427 16.377000000000002Z" transform="rotate(-27.039 27.423 18.743)"/><path fill="#0277bd" d="M30.765,17.041c-0.149-0.291-0.384-0.521-0.682-0.688c0.004,0.007,0.011,0.013,0.015,0.02c0.595,1.165-0.418,2.872-2.262,3.813c-1.383,0.706-2.84,0.78-3.733,0.282c0.608,1.145,2.568,1.321,4.4,0.386C30.347,19.913,31.36,18.206,30.765,17.041z"/><path fill="#ffc062" d="M21.863,26.662c-0.264,0.981-1.924,1.698-1.924,1.698l-0.495,4.338c0,0,0.291,2.756,0.14,4.115c-0.151,1.358-1.381,2.263-1.381,2.263l-0.113,0.49c0,0-0.451,0.887,2.153-0.036c3.387-1.202,5.053-4.717,5.053-4.717s-0.059,1.661-0.739,2.96c-1.46,2.792-3.817,3.54-4.874,3.516c-1.738-0.04-1.498-1.278-1.498-1.278s-0.519,1.278,0,1.997c1.207,1.094,4.859-0.709,5.992-2.097c1.149-1.408,1.698-3.655,1.778-4.694c0,0,0.722,2.84,0.36,4.434c-1.398,6.152-7.311,3.136-7.311,3.136s0.565,1.279,3.809,1.279c2.34,0,4.331-1.495,4.331-5.747C27.145,34.533,25.314,30.492,21.863,26.662z M22.644,36.241c-0.7,0,0.501-0.676,0.501-1.345c0-0.49-0.305-0.967-0.816-0.967c-0.717,0-0.912,0.579-0.912,0.881s0.058,0.771-0.354,0.771c-0.264,0-0.71-1.637-0.71-2.806c0-1.17,0.377-3.848,0.377-3.848l1.17-0.641c0,0,3.169,4.048,3.169,4.716C25.07,33.741,24.123,36.241,22.644,36.241z"/><path fill="#ffc062" d="M22.888 41.94A.411.411 0 1 0 22.888 42.762.411.411 0 1 0 22.888 41.94zM24.182 41.263A.308.308 0 1 0 24.182 41.879.308.308 0 1 0 24.182 41.263zM25 40.358000000000004A.23.23 0 1 0 25 40.818.23.23 0 1 0 25 40.358000000000004zM25.369 39.608A.127.127 0 1 0 25.369 39.862.127.127 0 1 0 25.369 39.608zM28.482 38.494A.388.388 0 1 0 28.482 39.269999999999996.388.388 0 1 0 28.482 38.494zM28.188 37.07A.271.271 0 1 0 28.188 37.612.271.271 0 1 0 28.188 37.07zM27.8 35.87A.165.165 0 1 0 27.8 36.199999999999996.165.165 0 1 0 27.8 35.87zM19.166 21.54A.262.262 0 1 0 19.166 22.064.262.262 0 1 0 19.166 21.54z"/><path fill="#d32f2f" d="M21.492 17.312A.328.328 0 1 0 21.492 17.968.328.328 0 1 0 21.492 17.312zM21.984 16.613000000000003A.208.208 0 1 0 21.984 17.029.208.208 0 1 0 21.984 16.613000000000003zM21.383 8.717A.306.306 0 1 0 21.383 9.328999999999999.306.306 0 1 0 21.383 8.717zM21.842 9.635A.186.186 0 1 0 21.842 10.007.186.186 0 1 0 21.842 9.635zM28.154 13.152A.218.218 0 1 0 28.154 13.588.218.218 0 1 0 28.154 13.152zM29.017 13.075000000000001A.306.306 0 1 0 29.017 13.687.306.306 0 1 0 29.017 13.075000000000001z"/><path fill="#ffc062" d="M28.555 40.108c0 0 .064.428.192.535.128.107.428.246.428.246s-.385.064-.481.171c-.09.1-.257.481-.257.481s-.086-.417-.16-.535-.438-.235-.438-.235.353-.107.46-.192C28.406 40.493 28.555 40.108 28.555 40.108zM32.006 12.697c0 0 .099.393.229.481.13.088.422.19.422.19s-.353.095-.433.204c-.075.101-.195.473-.195.473s-.118-.381-.199-.484-.431-.179-.431-.179.32-.132.412-.222C31.902 13.07 32.006 12.697 32.006 12.697zM22.967 31.229c0 0 .094.629.283.786.189.157.629.362.629.362s-.566.094-.708.252c-.132.146-.377.708-.377.708s-.126-.613-.236-.786c-.11-.173-.645-.346-.645-.346s.519-.157.676-.283C22.747 31.796 22.967 31.229 22.967 31.229zM20.27 19.956c0 0-.143.43-.073.591.069.161.283.432.283.432s-.39-.122-.531-.068c-.131.051-.468.328-.468.328s.118-.43.103-.576c-.014-.145-.298-.428-.298-.428s.38.067.521.038C19.948 20.245 20.27 19.956 20.27 19.956zM20.541 5.986c0 0-.305.336-.306.511s.084.51.084.51-.307-.27-.458-.277c-.14-.007-.561.111-.561.111s.282-.346.327-.485c.046-.139-.1-.512-.1-.512s.321.215.461.245C20.13 6.12 20.541 5.986 20.541 5.986z"/><path fill="#fff" d="M17.779 13.264c0 0-.145.553-.037.755s.419.539.419.539-.529-.14-.71-.065c-.168.07-.586.436-.586.436s.112-.552.078-.737c-.034-.185-.439-.532-.439-.532s.511.07.694.027S17.779 13.264 17.779 13.264zM28.621 17.866c0 0-.12.459-.031.627.09.168.348.448.348.448s-.439-.116-.589-.054c-.14.058-.486.362-.486.362s.093-.459.065-.612c-.028-.153-.364-.442-.364-.442s.424.058.576.023C28.292 18.182 28.621 17.866 28.621 17.866zM26.428 17.65c0 0-.089.34-.023.464.067.124.258.332.258.332s-.325-.086-.436-.04c-.103.043-.36.268-.36.268s.069-.34.048-.453-.27-.327-.27-.327.314.043.427.017C26.184 17.884 26.428 17.65 26.428 17.65zM28.413 7.638c0 0-.04.482.08.635s.429.388.429.388-.462-.039-.601.05c-.13.083-.424.45-.424.45s.012-.477-.043-.626c-.055-.149-.444-.379-.444-.379s.436-.016.582-.079C28.138 8.014 28.413 7.638 28.413 7.638zM26.464 19.128A.483.483 0 1 0 26.464 20.094.483.483 0 1 0 26.464 19.128zM17.342 10.839A.413.413 0 1 0 17.342 11.665000000000001.413.413 0 1 0 17.342 10.839zM18.531 12.738A.241.241 0 1 0 18.531 13.219999999999999.241.241 0 1 0 18.531 12.738zM25.606 6.672000000000001A.241.241 0 1 0 25.606 7.154.241.241 0 1 0 25.606 6.672000000000001zM26.198 7.6770000000000005A.492.492 0 1 0 26.198 8.661000000000001.492.492 0 1 0 26.198 7.6770000000000005zM16.76 12.355A.241.241 0 1 0 16.76 12.837.241.241 0 1 0 16.76 12.355zM27.683 17.029A.255.255 0 1 0 27.683 17.538999999999998.255.255 0 1 0 27.683 17.029z"/></svg>