<svg xmlns="http://www.w3.org/2000/svg" xmlns:xlink="http://www.w3.org/1999/xlink" viewBox="0,0,255.99057,255.99057" width="48px" height="48px" fill-rule="nonzero"><defs><linearGradient x1="8.531" y1="15.96" x2="12.224" y2="33.337" gradientUnits="userSpaceOnUse" id="color-1"><stop offset="0" stop-color="#f5bc00"></stop><stop offset="1" stop-color="#f5bc00"></stop></linearGradient><linearGradient x1="35.055" y1="15.849" x2="38.945" y2="34.151" gradientUnits="userSpaceOnUse" id="color-2"><stop offset="0" stop-color="#f5bc00"></stop><stop offset="1" stop-color="#f5bc00"></stop></linearGradient><linearGradient x1="17.081" y1="15.748" x2="20.991" y2="34.142" gradientUnits="userSpaceOnUse" id="color-3"><stop offset="0" stop-color="#f5bc00"></stop><stop offset="1" stop-color="#f5bc00"></stop></linearGradient><linearGradient x1="26.576" y1="15.95" x2="30.424" y2="34.05" gradientUnits="userSpaceOnUse" id="color-4"><stop offset="0" stop-color="#f5bc00"></stop><stop offset="1" stop-color="#f5bc00"></stop></linearGradient><linearGradient x1="20.134" y1="6.811" x2="27.866" y2="43.189" gradientUnits="userSpaceOnUse" id="color-5"><stop offset="0" stop-color="#f5bc00"></stop><stop offset="1" stop-color="#f5bc00"></stop></linearGradient></defs><g fill="none" fill-rule="nonzero" stroke="none" stroke-width="1" stroke-linecap="butt" stroke-linejoin="miter" stroke-miterlimit="10" stroke-dasharray="" stroke-dashoffset="0" font-family="none" font-weight="none" font-size="none" text-anchor="none" style="mix-blend-mode: normal"><g transform="scale(5.33333,5.33333)"><path d="M12.5,16h-4c-0.825,0 -1.5,0.675 -1.5,1.5v15.5c0,0.552 0.448,1 1,1h1c0.552,0 1,-0.448 1,-1v-6h2.5c0.825,0 1.5,-0.675 1.5,-1.5v-8c0,-0.825 -0.675,-1.5 -1.5,-1.5zM11,24h-1v-5h1z" fill="url(#color-1)"></path><path d="M39.5,16h-5c-0.825,0 -1.5,0.675 -1.5,1.5v15c0,0.825 0.675,1.5 1.5,1.5h5c0.825,0 1.5,-0.675 1.5,-1.5v-8c0,-0.825 -0.675,-1.5 -1.5,-1.5h-0.5h-1c-0.552,0 -1,0.448 -1,1v1c0,0.552 0.448,1 1,1v5h-2v-12h2v1c0,0.552 0.448,1 1,1h1c0.552,0 1,-0.448 1,-1v-2.5c0,-0.825 -0.675,-1.5 -1.5,-1.5z" fill="url(#color-2)"></path><path d="M22,16h-1c-0.552,0 -1,0.448 -1,1v14h-2v-14c0,-0.552 -0.448,-1 -1,-1h-1c-0.552,0 -1,0.448 -1,1v15.5c0,0.825 0.675,1.5 1.5,1.5h5c0.825,0 1.5,-0.675 1.5,-1.5v-15.5c0,-0.552 -0.448,-1 -1,-1z" fill="url(#color-3)"></path><path d="M32,22v-4.5c0,-0.825 -0.675,-1.5 -1.5,-1.5h-4c-0.825,0 -1.5,0.675 -1.5,1.5v5.5c-0.552,0 -1,0.448 -1,1v1c0,0.552 0.448,1 1,1v6.5c0,0.825 0.675,1.5 1.5,1.5h4c0.825,0 1.5,-0.675 1.5,-1.5v-6.5c0,-1.105 -0.895,-2 -2,-2c1.105,0 2,-0.895 2,-2zM29,31h-1v-5h1zM29,23h-1v-4h1z" fill="url(#color-4)"></path><path d="M47,19c0.552,0 1,-0.448 1,-1v-1c0,-0.552 -0.448,-1 -1,-1h-1v-2.5c0,-1.925 -1.575,-3.5 -3.5,-3.5h-37c-1.925,0 -3.5,1.575 -3.5,3.5v2.5h-1c-0.552,0 -1,0.448 -1,1v1c0,0.552 0.448,1 1,1h1v12h-1c-0.552,0 -1,0.448 -1,1v1c0,0.552 0.448,1 1,1h1v2.5c0,1.925 1.575,3.5 3.5,3.5h37c1.925,0 3.5,-1.575 3.5,-3.5v-2.5h1c0.552,0 1,-0.448 1,-1v-1c0,-0.552 -0.448,-1 -1,-1h-1v-12zM43,36.5c0,0.276 -0.224,0.5 -0.5,0.5h-37c-0.276,0 -0.5,-0.224 -0.5,-0.5v-23c0,-0.276 0.224,-0.5 0.5,-0.5h37c0.276,0 0.5,0.224 0.5,0.5z" fill="url(#color-5)"></path></g></g></svg>