<svg xmlns="http://www.w3.org/2000/svg" xmlns:xlink="http://www.w3.org/1999/xlink" viewBox="0,0,255.99057,255.99057" width="64px" height="64px" fill-rule="nonzero"><g fill="#b41f1f" fill-rule="nonzero" stroke="none" stroke-width="1" stroke-linecap="butt" stroke-linejoin="miter" stroke-miterlimit="10" stroke-dasharray="" stroke-dashoffset="0" font-family="none" font-weight="none" font-size="none" text-anchor="none" style="mix-blend-mode: normal"><g transform="scale(4,4)"><path d="M31,20l-4,1l-1,6l3,3h6l3,-4l-2,-5z"></path><path d="M26,32l-5,7v9l8,7l10,-2l5,-8l-2,-8l-6,-5z"></path><path d="M43,8h2l2,11l-7,11h-2l6,-12z"></path><path d="M43,34l7,4l1,12l-2,6l-3,2l-1,-1l3,-7v-10l-5,-4z"></path><path d="M40,32l11,-2l7,6v9l-1,1l-1,-1l-1,-8l-5,-4h-8z"></path><path d="M42,29l8,-5l4,-5l1,-6l2,-1l1,1l-1,8l-9,7l-5,2z"></path><path d="M21,8h-2l-2,11l7,11h2l-6,-12z"></path><path d="M21,34l-7,4l-1,12l2,6l3,2l1,-1l-3,-7v-10l5,-4z"></path><path d="M24,32l-11,-2l-7,6v9l1,1l1,-1l1,-8l5,-4h8z"></path><path d="M22,29l-8,-5l-4,-5l-1,-6l-2,-1l-1,1l1,8l9,7l5,2z"></path></g></g></svg>