<svg xmlns="http://www.w3.org/2000/svg" xmlns:xlink="http://www.w3.org/1999/xlink" viewBox="0,0,255.99057,255.99057" width="50px" height="50px" fill-rule="nonzero"><g fill="#ea7e01" fill-rule="nonzero" stroke="none" stroke-width="1" stroke-linecap="butt" stroke-linejoin="miter" stroke-miterlimit="10" stroke-dasharray="" stroke-dashoffset="0" font-family="none" font-weight="none" font-size="none" text-anchor="none" style="mix-blend-mode: normal"><g transform="scale(5.12,5.12)"><path d="M34.97852,4.67969c-0.142,5.889 -0.99125,8.51872 -1.03125,8.63672c-0.139,0.419 -0.52827,0.68359 -0.94727,0.68359c-0.104,0 -0.21141,-0.01773 -0.31641,-0.05273c-0.523,-0.174 -0.80586,-0.73867 -0.63086,-1.26367c0.007,-0.022 0.7213,-2.27511 0.9043,-7.28711c-0.33,1.743 -2.65836,4.21842 -4.31836,5.60742c-5.997,0.138 -9.18106,3.67409 -10.16406,4.99609h-1.47461c-0.197,0 -0.39069,0.05897 -0.55469,0.16797l-2.74805,1.83203h-2.69727c-0.308,0 -0.59811,0.14177 -0.78711,0.38477c-0.189,0.242 -0.25859,0.55942 -0.18359,0.85742l1,4c0.07,0.283 0.26344,0.52134 0.52344,0.65234l0.86133,0.42969c0.532,0.375 1.62794,1.02278 3.58594,1.67578c0,0 -0.48825,-0.98592 -0.78125,-1.91992c0.58,-0.658 1.79131,-1.79239 3.44531,-2.02539c1.389,-0.192 2.84489,0.28378 4.33789,1.42578v0.73047c0,0.865 -0.45062,1.753 -1.26562,2.5c-1.071,0.982 -2.59733,1.53959 -3.86133,1.43359c-0.347,-0.03 -0.55859,-0.09375 -0.55859,-0.09375v0.00195c-0.44,-0.147 -0.92301,0.02487 -1.16602,0.42188c-0.244,0.395 -0.18447,0.90442 0.14453,1.23242l2.11328,2.11328c0.591,0.592 1.41223,0.89166 2.24023,0.84766c0.863,-0.055 1.66903,-0.48559 2.20703,-1.18359c0.623,-0.805 2.42792,-1.99428 5.54492,-2.98828c0.08,-0.245 0.14845,-0.494 0.18945,-0.75c0.222,-1.4 -0.22242,-2.74347 -1.35742,-4.10547c-0.354,-0.425 -0.29705,-1.0552 0.12695,-1.4082c0.426,-0.353 1.05716,-0.29705 1.41016,0.12695c1.508,1.81 2.11092,3.73094 1.79492,5.71094c-0.48,3 -2.98153,5.25724 -4.26953,6.24023c-0.326,0.334 -0.388,0.84814 -0.125,1.24414c0.28,0.42 0.82734,0.5668 1.27734,0.3418l2.625,-1.3125c-0.069,0.403 -0.22475,0.75274 -0.46875,1.05273c-0.341,0.417 -0.83542,0.71292 -1.35742,0.91992c-0.709,0.201 -1.49247,0.35517 -2.35547,0.45117c-0.527,0.059 -0.91572,0.52078 -0.88672,1.05078c0.028,0.527 0.46509,0.94141 0.99609,0.94141c0.053,0 0.55986,-0.00609 1.25586,-0.12109c2.89,-0.597 5.89858,-2.1847 6.76758,-6.0957c0.101,-0.453 0.49889,-0.7772 0.96289,-0.7832c0.463,0.022 0.87042,0.30781 0.98242,0.75781c0.04,0.156 0.82095,3.4748 -1.12305,9.2168c0.052,0.008 0.10325,0.02539 0.15625,0.02539c0.227,0 0.45267,-0.07647 0.63867,-0.23047c9.619,-8.017 7.01084,-16.78367 5.21484,-20.51367c1.289,0.902 2.2038,3.08719 2.2168,3.11719c0.179,0.443 0.63814,0.69342 1.11914,0.60742c0.469,-0.091 0.80859,-0.50147 0.80859,-0.98047c0,-8.035 -6.02158,-11.66739 -8.01758,-12.65039c-0.165,-3.344 -1.54791,-5.90792 -2.00391,-6.66992zM23,7c-9.925,0 -18,8.075 -18,18c0,9.925 8.075,18 18,18c0.553,0 1,-0.447 1,-1c0,-0.553 -0.447,-1 -1,-1c-8.822,0 -16,-7.178 -16,-16c0,-8.822 7.178,-16 16,-16c1.604,0 3.18608,0.23612 4.70508,0.70313c0.537,0.166 1.089,-0.13511 1.25,-0.66211c0.162,-0.528 -0.13316,-1.088 -0.66016,-1.25c-1.711,-0.524 -3.49192,-0.79102 -5.29492,-0.79102zM23,15.06445l-1.2832,1.93555l-1.58008,0.02344l1.01367,-1.16211zM33.94531,37.37109c-1.8,2.09 -4.41323,3.13908 -6.99023,3.58008c-0.836,1.702 -1.45334,3.71223 -0.90234,5.36523c0.115,0.347 0.41148,0.60397 0.77148,0.66797c0.059,0.011 0.11678,0.01563 0.17578,0.01563c0.301,0 0.5883,-0.136 0.7793,-0.375c0.028,-0.034 2.04773,-2.52233 4.92773,-4.61133c0.659,-1.804 1.03828,-3.36658 1.23828,-4.64258z"></path></g></g></svg>