<svg xmlns="http://www.w3.org/2000/svg"  viewBox="0 0 48 48" width="50px" height="50px" baseProfile="basic"><path fill="#51a2f9" d="M36,12h-5c0-4-3-7-7-7s-7,3-7,7h-5c-3.143,0-5,2.076-5,5v22c0,2.924,1.857,4.999,5,5h24	c3.143,0,5-2.076,5-5V17C41,14.076,39.143,12,36,12z M29.024,18.331c0,1-0.5,2-1.1,2.7c-0.7,0.8-1.9,1.4-3,1.5	c-0.3,0-0.5-0.2-0.5-0.4c0-1.1,0.5-2,1.2-2.7c0.7-0.7,1.8-1.3,2.9-1.5C28.824,17.931,29.024,18.131,29.024,18.331z M24,7	c2.709,0,4.883,2.319,5,5H19C19.117,9.319,21.291,7,24,7z M30.561,31.1c-0.312,0.623-0.52,1.039-0.935,1.558	c-0.623,1.039-1.558,2.286-2.805,2.286c-1.039,0-1.247-0.623-2.701-0.623c-1.351,0-1.662,0.623-2.701,0.623	c-1.143,0-2.078-1.143-2.701-2.078c-1.143-1.662-1.662-3.532-1.662-5.195c0-1.039,0.208-1.974,0.727-2.701	c0.831-1.247,2.078-1.974,3.325-1.974s1.974,0.623,3.013,0.623c1.039,0,1.558-0.623,3.013-0.623c0.935,0,1.974,0.623,2.701,1.455	c0.176,0.18,0.104,0.416,0,0.519c-2.263,1.447-1.496,4.891,0.623,5.714C30.665,30.789,30.627,30.982,30.561,31.1z"/></svg>