<svg width="1200" height="800" viewBox="0 0 1200 800" fill="none" xmlns="http://www.w3.org/2000/svg">
<path d="M974.004 421.463L775.887 390.417L802.15 508.473L974.004 421.463Z" fill="#D12053"/>
<path d="M974.005 421.463L824.717 214.043L775.926 390.454L974.005 421.463Z" fill="#E2136E"/>
<path d="M771.291 388.064L614.867 188.153L819.709 212.624L771.291 388.064Z" fill="#D12053"/>
<path d="M700.048 304.528L613.188 222.674H636.051L700.048 304.528Z" fill="#9E1638"/>
<path d="M1016.26 320.63L979.498 420.342L919.91 337.927L1016.26 320.63Z" fill="#D12053"/>
<path d="M825.277 502.495L969.522 444.551L975.574 426.133L825.277 502.495Z" fill="#E2136E"/>
<path d="M709.91 611.846L771.703 395.087L803.047 536.119L709.91 611.846Z" fill="#9E1638"/>
<path d="M1022.01 321.414L1006.84 362.584L1061.54 361.688L1022.01 321.414ZM138.461 337.927C141.113 338.151 143.803 338.637 146.643 338.637C149.482 338.637 151.798 338.151 154.824 337.927V425.61C163.454 410.927 174.326 401.251 190.316 401.251C219.232 401.251 231.635 429.868 231.635 456.17C231.635 487.664 214.824 517.813 185.347 517.813C179.445 517.942 173.621 516.454 168.504 513.511C163.387 510.567 159.173 506.28 156.319 501.113C151.387 505.447 147.016 510.64 142.346 515.347H138.61L138.461 337.927ZM154.451 466.892C154.451 492.446 165.285 510.266 183.105 510.266C206.231 510.266 213.665 479.183 213.665 457.141C213.665 431.55 205.222 411.413 185.198 411.189C161.811 411.002 154.451 438.685 154.451 466.929V466.892Z" fill="#E2136E"/>
<path d="M307.065 394.639L289.656 417.055C306.019 440.965 322.98 464.389 339.418 488.598L356.006 514.749V516.057C351.934 515.796 348.235 515.272 344.798 515.272C341.361 515.272 337.027 515.796 333.366 516.057C328.846 507.689 324.363 499.955 319.244 492.371L274.413 426.058C273.404 425.012 270.976 424.19 270.976 425.274V516.057C267.688 515.796 264.812 515.272 261.972 515.272C259.133 515.272 255.845 515.796 252.969 516.057V337.927C255.845 338.151 258.946 338.712 261.972 338.712C264.998 338.712 267.688 338.151 270.976 337.927V418.325C270.976 419.894 274.039 418.848 276.057 416.756C279.948 412.721 283.591 408.454 286.966 403.979L337.364 337.853C340.016 338.077 342.669 338.637 345.545 338.637C348.422 338.637 350.626 338.077 353.54 337.853L307.065 394.639ZM442.643 495.995C442.643 505.26 442.045 509.967 454.112 506.904V512.097C452.141 513.085 450.076 513.873 447.948 514.451C437.3 516.58 428.483 514.675 426.84 500.74L425.009 502.794C421.45 507.458 416.858 511.235 411.595 513.827C406.332 516.42 400.54 517.759 394.673 517.738C380.178 517.738 367.475 506.306 367.475 488.785C367.475 461.774 386.155 458.225 405.321 454.675C421.535 451.612 427.064 450.192 427.064 438.798C427.064 421.239 418.471 411.077 403.116 411.077C397.872 410.974 392.724 412.485 388.367 415.405C384.01 418.325 380.656 422.514 378.758 427.403H376.516V414.253C385.735 406.232 397.441 401.639 409.654 401.252C431.136 401.252 442.829 414.253 442.829 441.039L442.643 495.995ZM426.279 456.88L419.069 458.524C405.134 461.587 384.25 463.941 384.25 485.572C384.25 500.516 391.722 507.987 404.274 507.987C410.768 507.188 416.706 503.924 420.862 498.872C422.356 497.153 426.466 493.118 426.466 491.4L426.279 456.88ZM479.143 492.857C484 502.159 493.04 510.49 502.679 510.49C508.179 510.21 513.354 507.799 517.106 503.768C520.858 499.736 522.893 494.403 522.779 488.897C522.779 456.917 474.398 477.689 474.398 436.295C474.398 413.58 489.342 401.289 507.76 401.289C515.904 401.11 523.937 403.232 530.923 407.416C528.905 412.897 527.282 418.515 526.066 424.228H524.198C521.508 416.419 514.373 408.574 506.789 408.574C496.552 408.574 488.109 415.485 488.109 428.3C488.109 458.598 536.49 442.459 536.49 480.379C536.49 505.746 516.838 517.738 498.756 517.738C489.701 517.731 480.836 515.139 473.203 510.266C475.036 504.582 476.472 498.778 477.499 492.894L479.143 492.857ZM564.061 337.927C566.788 338.151 569.441 338.637 572.28 338.637C575.119 338.637 577.435 338.151 580.499 337.927V424.19C587.672 409.732 598.917 401.252 613.487 401.252C637.248 401.252 646.476 417.54 646.476 447.428V516.057C643.375 515.796 640.984 515.347 638.257 515.347C635.529 515.347 632.727 515.833 630.038 516.057V452.845C630.038 426.693 624.77 413.505 607.323 413.505C588.867 413.505 580.499 426.805 580.499 451.425V516.057C577.435 515.796 575.007 515.347 572.28 515.347C569.553 515.347 566.825 515.833 564.061 516.057V337.927Z" fill="white"/>
</svg>
