<svg xmlns="http://www.w3.org/2000/svg" viewBox="0 0 1200 800" width="1200" height="800"><g transform="translate(626.0 338.0) rotate(-13.374613467488167 70.5 66.5) scale(0.5080385388667498 0.5275872601560547)"><svg width="277.538" height="252.091" viewBox="0 0 277.538 252.091"><path d="m206.762 0 70.776 252.091L0 146.324z" fill="#e94a47"/><g fill="#fff"><path d="M47.369 136.696a.304.304 0 0 0 .394.172.278.278 0 0 0 .151-.391.292.292 0 0 0-.374-.174.304.304 0 0 0-.171.393zm-15.403-.951a.33.33 0 0 0 .31.307.308.308 0 0 0-.003-.616.327.327 0 0 0-.307.309zm.023-7.259a.296.296 0 0 0 .306.286h.001a.288.288 0 0 0 .309-.264l.001-.025a.317.317 0 0 0-.31-.307.329.329 0 0 0-.307.31zm-11.342 17.109a.561.561 0 0 0 .536.604.547.547 0 0 0 .607-.516.608.608 0 0 0-.539-.624.575.575 0 0 0-.604.536zm.958-13.719a.57.57 0 0 0 1.14.068.563.563 0 0 0-.515-.607h-.001a.572.572 0 0 0-.623.515l-.001.024zm23.171 31.53a.577.577 0 0 0 .727.352.556.556 0 0 0 .357-.701l-.002-.006a.547.547 0 0 0-.668-.388l-.042.013a.608.608 0 0 0-.372.73zm-4.357-13.066a.608.608 0 0 0 .73.372.577.577 0 0 0 .352-.727.566.566 0 0 0-.717-.355l-.01.003a.555.555 0 0 0-.357.7l.002.007zm-4.354-13.045a.546.546 0 0 0 .681.363l.026-.008a.566.566 0 0 0 .381-.702l-.009-.028a.57.57 0 1 0-1.079.375zm-4.377-13.063a.577.577 0 0 0 .727.352.546.546 0 0 0 .363-.681l-.008-.025a.575.575 0 0 0-.71-.375.589.589 0 0 0-.372.729zM28.669 149.5a.504.504 0 0 0 .606.368.49.49 0 0 0 .374-.585l-.005-.021a.507.507 0 0 0-.6-.391l-.009.002a.523.523 0 0 0-.366.627zm-2.77-11.991a.507.507 0 0 0 .599.391l.009-.002c.259-.05.429-.3.38-.559l-.011-.047a.507.507 0 0 0-.6-.391l-.009.002a.515.515 0 0 0-.368.606zM7.11 143.727a.487.487 0 0 0 .409.58.504.504 0 0 0 .581-.409.534.534 0 0 0-.412-.601.516.516 0 0 0-.578.43zm43.956 2.303a.48.48 0 0 0 .693.11.505.505 0 0 0 .137-.702l-.01-.015a.522.522 0 0 0-.714-.107.499.499 0 0 0-.12.695l.014.019zm-7.14-10.008a.522.522 0 0 0 .716.127.515.515 0 0 0-.589-.843.5.5 0 0 0-.144.692l.017.024zm-5.377 16.694a.62.62 0 0 0 .84.13.592.592 0 0 0-.707-.951.602.602 0 0 0-.133.821zm-8.35-11.465a.6.6 0 0 0 .82.133.588.588 0 1 0-.684-.956l-.003.003a.596.596 0 0 0-.133.82zm-8.349-11.465a.595.595 0 0 0 .82.133.62.62 0 0 0 .13-.84.593.593 0 0 0-.95.707zM4.955 145.238a.593.593 0 0 0 .717.435h.001a.573.573 0 0 0 .418-.694v-.001a.583.583 0 1 0-1.136.26zm18.56.885a.597.597 0 0 0 .823.153.58.58 0 0 0 .156-.803.57.57 0 0 0-.805-.176.588.588 0 0 0-.184.81l.01.016zm21.068-15.763a.575.575 0 0 0 .536.604.547.547 0 0 0 .604-.485l.003-.031a.575.575 0 0 0-.536-.604.564.564 0 0 0-.607.516c0-.001 0 0 0 0zm.959-13.719a.57.57 0 1 0 1.14.068.563.563 0 0 0-.515-.607h-.001a.608.608 0 0 0-.624.539zm25.105 4.069a.577.577 0 0 0 .727.352.556.556 0 0 0 .357-.701l-.002-.006a.547.547 0 0 0-.668-.388l-.042.013a.608.608 0 0 0-.372.73zm-4.357-13.066a.608.608 0 0 0 .73.372.577.577 0 0 0 .352-.727.566.566 0 0 0-.717-.355l-.01.003a.555.555 0 0 0-.357.7l.002.007zm-9.006 11.113c.074.275.35.444.629.386a.49.49 0 0 0 .373-.585l-.005-.021a.506.506 0 0 0-.6-.39l-.009.002a.528.528 0 0 0-.388.608zm19.653-15.423a.48.48 0 0 0 .693.11.505.505 0 0 0 .137-.702l-.01-.015a.522.522 0 0 0-.714-.107.499.499 0 0 0-.12.695l.014.019zM64.42 110.02a.62.62 0 0 0 .84.13.593.593 0 0 0-.707-.951.601.601 0 0 0-.133.821z" opacity=".86"/></g></svg></g><g transform="translate(568.0 524.0) rotate(0.0 41.0 41.0) scale(6.654763837039442 6.654763837039442)"><svg width="12.322" height="12.322" viewBox="-1373.77 605.694 12.322 12.322"><circle cx="-1367.609" cy="611.855" fill="#A1C3FC" r="6.161"/></svg></g><g transform="translate(425.0 445.0) rotate(0.0 82.5 84.0) scale(1.2124774956828452 1.2347675256140764)"><svg width="136.085" height="136.058" viewBox="-1935.913 257.638 136.085 136.058"><path d="m-1867.871 393.696-68.042-68.029 68.042-68.029 68.043 68.029z" fill="#a1c3fc"/></svg></g><g transform="translate(780.0 353.0) rotate(0.0 -230.0 202.5) translate(-0.0 0.0) scale(-1.5333333333333334 1.5637065637065637)"><svg width="285.652" height="259" viewBox="0 0 285.652 259"><g fill="#A1C3FC"><path d="m219.829 174.58-207.48-17.733L0 77.925l252.239-33.026zM17.274 151.561l198.213 16.941L244.7 51.621 6.516 82.804z"/><path d="M248.467 51.103a2.843 2.843 0 0 1-2.4-4.361c1.017-1.612 25.201-39.581 49.294-46.626a2.84 2.84 0 0 1 3.525 1.932 2.841 2.841 0 0 1-1.931 3.526c-22.031 6.442-45.844 43.828-46.082 44.204a2.842 2.842 0 0 1-2.406 1.325zM37.268 226.355l-.004-5.686c1.48-.001 148.318-.118 167.299-.28 8.521-.072 14.365-1.728 16.9-4.791 1.378-1.664 1.805-3.821 1.303-6.593-1.627-8.987-16.915-30.526-22.67-38.066l4.519-3.45c.879 1.151 21.543 28.338 23.745 40.503.807 4.46-.041 8.238-2.519 11.231-3.69 4.456-10.833 6.761-21.229 6.85-19.002.164-165.862.281-167.344.282z"/><path d="M37.73 259c-10.587 0-19.17-8.585-19.17-19.175s8.583-19.175 19.17-19.175 19.17 8.585 19.17 19.175c-.012 10.584-8.588 19.162-19.17 19.175zm0-32.666c-7.448 0-13.486 6.04-13.486 13.49s6.038 13.49 13.486 13.49 13.486-6.04 13.486-13.49c-.009-7.446-6.041-13.482-13.486-13.49zM201.405 259c-10.587 0-19.17-8.585-19.17-19.175s8.583-19.175 19.17-19.175 19.17 8.585 19.17 19.175c-.011 10.584-8.588 19.162-19.17 19.175zm0-32.666c-7.448 0-13.486 6.04-13.486 13.49s6.038 13.49 13.486 13.49 13.486-6.04 13.486-13.49c-.008-7.446-6.041-13.482-13.486-13.49z"/></g></svg></g><g transform="translate(53.0 49.0) rotate(0.0 158.5 356.5) translate(0.0 0.0) scale(1.1569343065693432 1.1883333333333332)"><svg width="274" height="600" viewBox="0 0 274 600"><linearGradient id="a"><stop offset="0" stop-color="#E94A47"/><stop offset="1" stop-color="#D03147"/></linearGradient><linearGradient xmlns:xlink="http://www.w3.org/1999/xlink" id="c" gradientUnits="userSpaceOnUse" x1="0" x2="136.92" xlink:href="#a" y1="573.246" y2="573.246"/><linearGradient xmlns:xlink="http://www.w3.org/1999/xlink" id="d" gradientTransform="matrix(-.0741 0 0 .0741 -210.6924 -49.4972)" gradientUnits="userSpaceOnUse" x1="-4568.573" x2="-2255.217" xlink:href="#a" y1="9323.381" y2="11458.787"/><linearGradient id="b"><stop offset=".129" stop-color="#428dfc"/><stop offset=".999" stop-color="#1d72d8"/></linearGradient><linearGradient xmlns:xlink="http://www.w3.org/1999/xlink" id="e" gradientTransform="matrix(-.0741 -.00016762 .00016762 .0714 -234.9459 -45.6689)" gradientUnits="userSpaceOnUse" x1="-1788.269" x2="-4482.034" xlink:href="#b" y1="4502.677" y2="6173.492"/><linearGradient xmlns:xlink="http://www.w3.org/1999/xlink" id="f" gradientTransform="matrix(-.0673 .0308 .03 .0647 -272.9906 -32.0781)" gradientUnits="userSpaceOnUse" x1="-1292.082" x2="-3882.343" xlink:href="#b" y1="6682.065" y2="8288.682"/><linearGradient id="g" gradientUnits="userSpaceOnUse" x1="76.863" x2="93.866" y1="101.039" y2="320.492"><stop offset="0" stop-color="#23286b"/><stop offset="1" stop-color="#151a4f"/></linearGradient><linearGradient id="h" gradientUnits="userSpaceOnUse" x1="130.324" x2="145.089" y1="92.164" y2="65.95"><stop offset="0" stop-color="#ffbeb6"/><stop offset="1" stop-color="#f2a19c"/></linearGradient><path d="M246.879 282.427s-21.808 1.938-30.296-13.323c-8.489-15.261-12.149-13.806-24.114-16.395-5.16-1.119-24.347-6.167-39.109-10.298l29.5-22.908c12.603 11.021 30.219 25.386 38.152 27.245 13.033 3.032 25.26-1.002 31.111-.027 5.908.977 7.359 1.893 7.301 6.236 0 0 2.821.97 10.295 2.867 14.289 4.568-13.458 26.516-22.84 26.603z" fill="#ffbeb6"/><path d="M19.195 546.492 0 599.995l136.92.005s-7.02-13.541-30.424-23.571c-23.404-10.031-42.121-29.801-42.121-29.801z" fill="url(#c)"/><path d="m142.929 546.216-19.209 53.779 136.92.005s-7.02-13.541-30.424-23.571c-23.404-10.031-45.133-30.592-45.133-30.592z" fill="url(#d)"/><path d="M64.373 546.626c11.529-19.675 61.887-130.728 66.992-157.14 4.445-23.063 5.275-49.866 4.093-74.407l-1.123-101.622-71.615-5.685c-3.479 4.576-6.708 28.33 6.605 103.45 10.31 58.177-13.284 62.878-23.676 82.62-10.439 19.727-12.152 28.528-15.842 47.485-4.203 21.591-16.83 28.092-21.517 49.743-5.159 23.831-.954 47.418.817 55.48z" fill="url(#e)"/><path d="M51.758 218.411c-1.244 5.612-10.077 50.604 38.862 104.311 32.434 35.595 17.856 48.982 17.386 79.975-.27 17.771 4.963 27.257 9.545 46.016 5.219 21.368-9.545 24.104-4.908 53.66 4.659 29.696 15.646 44.044 15.646 44.044l56.792-.58s9.947-138.207 2.898-166.901c-5.615-22.807-19.95-70.93-31.293-92.723l-39.58-88.201z" fill="url(#f)"/><path d="M96.771 248.452a.268.268 0 0 0 .355-.144.268.268 0 0 0-.144-.355.268.268 0 0 0-.355.144.273.273 0 0 0 .144.355zm2.554-6.12a.297.297 0 0 0 .374-.146.275.275 0 0 0-.162-.352.255.255 0 0 0-.343.114l-.012.028a.271.271 0 0 0 .143.356zm2.57-6.122a.268.268 0 0 0 .355-.144.297.297 0 0 0-.146-.374.303.303 0 0 0-.372.164.282.282 0 0 0 .163.354zm22.665 12.171a.28.28 0 0 0 .36.158.254.254 0 0 0 .153-.324l-.014-.033a.267.267 0 0 0-.342-.159.277.277 0 0 0-.157.358zm-37.332-10.667a.266.266 0 0 0 .38-.372.266.266 0 0 0-.376-.004.254.254 0 0 0-.024.357.121.121 0 0 1 .02.019zm23.257 9.798a.3.3 0 0 0 .282.281.282.282 0 0 0-.001-.563.298.298 0 0 0-.281.282zm.021-6.634c.004.15.131.266.281.262a.261.261 0 0 0 .282-.242c0-.008.002-.015 0-.024a.29.29 0 0 0-.282-.281.304.304 0 0 0-.281.285zm-49.889 9.215a.515.515 0 0 0 .739.049.509.509 0 0 0 .053-.718l-.003-.003a.515.515 0 0 0-.739-.049.509.509 0 0 0-.053.718c.001.001.001.003.003.003zm9.491-8.243a.524.524 0 0 0 .791-.687l-.003-.003a.508.508 0 0 0-.717-.053l-.003.003a.533.533 0 0 0-.068.74zm28.267 39.758a.526.526 0 0 0 .49.552.5.5 0 0 0 .552-.443c.002-.009.002-.019.002-.028a.528.528 0 0 0-.49-.553.514.514 0 0 0-.554.472c0-.003 0 0 0 0zm.875-12.537a.522.522 0 1 0 1.042.066v-.003a.516.516 0 0 0-.471-.556.556.556 0 0 0-.571.493zm.892-12.559a.511.511 0 0 0 .471.55l.019.002a.5.5 0 0 0 .552-.443c.002-.009.002-.019.002-.028a.557.557 0 0 0-.494-.571.528.528 0 0 0-.55.49zm.876-12.536a.523.523 0 0 0 1.042.062.516.516 0 0 0-.471-.556h-.002a.524.524 0 0 0-.569.471v.023zm-26.548 25.33a.516.516 0 1 0-.247-.699.533.533 0 0 0 .247.699zm5.618-11.257a.516.516 0 1 0-.247-.699.53.53 0 0 0 .247.699zm5.62-11.241a.528.528 0 1 0-.023-.01l.023.01zm5.613-11.277a.513.513 0 0 0 .694-.216l.008-.014a.514.514 0 1 0-.913-.477c-.004.008-.008.015-.011.024a.491.491 0 0 0 .196.667.087.087 0 0 0 .026.016zm30.87 37.258c.097.27.393.413.665.321a.507.507 0 0 0 .325-.639l-.002-.006a.498.498 0 0 0-.609-.354l-.039.012a.554.554 0 0 0-.34.666zm-3.982-11.94a.555.555 0 0 0 .667.34.527.527 0 0 0 .321-.665.517.517 0 0 0-.655-.324l-.009.003a.507.507 0 0 0-.325.639l.001.007zm-3.979-11.921a.499.499 0 0 0 .623.331l.024-.008a.515.515 0 0 0 .348-.641c-.003-.008-.004-.018-.008-.025a.52.52 0 1 0-.987.339v.004zm-3.998-11.936c.097.27.393.413.665.321a.499.499 0 0 0 .331-.623l-.008-.024a.526.526 0 0 0-.649-.342.54.54 0 0 0-.339.668zm-46.65 26.515a.463.463 0 1 0-.146-.638.47.47 0 0 0 .146.638zm5.952-9.52a.47.47 0 0 0 .638-.146.462.462 0 0 0-.766-.516l-.014.024a.452.452 0 0 0 .128.627c.002.004.007.008.014.011zm5.762-9.794a.39.39 0 0 0 .189.275.47.47 0 0 0 .494-.8l-.004-.003a.468.468 0 0 0-.437-.033l-.019.003a.337.337 0 0 0-.183.175.406.406 0 0 0-.04.383zm6.14-9.246a.468.468 0 1 0-.148-.654.475.475 0 0 0 .144.654c.002-.002.002 0 .004 0zm28.543 36.057a.49.49 0 0 0 .574.352.45.45 0 0 0 .338-.554.461.461 0 0 0-.547-.357l-.008.002a.488.488 0 0 0-.357.557zm-2.506-10.923a.462.462 0 0 0 .554.337.45.45 0 0 0 .338-.554.461.461 0 0 0-.547-.357l-.008.002a.475.475 0 0 0-.337.572zm-2.532-10.957c.053.25.297.41.547.357l.008-.002a.437.437 0 0 0 .337-.553.461.461 0 0 0-.547-.357l-.008.002a.47.47 0 0 0-.337.553zm-2.525-10.921a.467.467 0 0 0 .908-.221.486.486 0 0 0-.557-.355.495.495 0 0 0-.351.576zm-43.529-1.562c.146.206.43.256.635.11l.018-.012a.44.44 0 0 0 .117-.611c-.004-.008-.011-.015-.018-.024a.46.46 0 0 0-.655-.116.477.477 0 0 0-.097.653zm27.018 29.242a.473.473 0 0 0 .393.529.46.46 0 0 0 .53-.374.488.488 0 0 0-.376-.549.481.481 0 0 0-.547.394zm1.867-11.077c-.05.24.106.475.346.526l.028.004a.46.46 0 0 0 .53-.374.488.488 0 0 0-.376-.549.471.471 0 0 0-.528.393zm1.849-11.075a.46.46 0 0 0 .373.532.46.46 0 0 0 .532-.373v-.003a.462.462 0 0 0-.376-.531.462.462 0 0 0-.529.375zm38.317 13.178c.135.201.41.253.609.117.008-.004.015-.011.024-.018a.461.461 0 0 0 .117-.655.478.478 0 0 0-.652-.098.455.455 0 0 0-.11.635c.005.009.008.015.012.019zm-6.523-9.145c.152.21.441.26.655.116a.47.47 0 0 0-.537-.771.454.454 0 0 0-.131.631.04.04 0 0 0 .013.024zm-57.101-12.081a.275.275 0 0 0 .391-.018.275.275 0 0 0-.018-.391.275.275 0 0 0-.391.018.286.286 0 0 0 .018.391zm26.026 9.583a.272.272 0 1 0 .543-.019.272.272 0 0 0-.543.019zm-.24-6.617a.286.286 0 0 0 .299.259.271.271 0 0 0 .262-.28.261.261 0 0 0-.26-.262h-.02a.279.279 0 0 0-.281.276zm-12.617 1.128a.295.295 0 0 0 .354-.162.267.267 0 0 0-.147-.348l-.014-.004a.263.263 0 0 0-.345.137l-.009.025a.278.278 0 0 0 .161.352zm25.187-.819a.27.27 0 0 0 .495-.219.254.254 0 0 0-.324-.153l-.033.014a.266.266 0 0 0-.141.349l.003.009zm-43.082 3.294c.138.09.323.052.413-.088l.004-.008a.306.306 0 0 0-.077-.424c-.006-.004-.012-.009-.02-.012a.297.297 0 0 0-.413.088l-.004.008a.318.318 0 0 0 .097.436zm4.06-6.365a.316.316 0 0 0 .438-.095.316.316 0 0 0-.095-.438l-.004-.003a.297.297 0 0 0-.413.088l-.004.008a.303.303 0 0 0 .06.425.055.055 0 0 0 .018.015zm27.133 11.76a.29.29 0 0 0 .334.239c.012-.002.024-.004.036-.008a.31.31 0 0 0 .231-.37.343.343 0 0 0-.373-.25.318.318 0 0 0-.228.389zm-1.641-7.381c.043.17.217.272.387.229h.002a.31.31 0 0 0 .231-.37.343.343 0 0 0-.373-.25.347.347 0 0 0-.247.391zm-13.844 3.927a.381.381 0 0 0 .12.058.307.307 0 0 0 .357-.246l.002-.011a.319.319 0 0 0-.239-.361l-.019.003a.307.307 0 0 0-.357.245l-.002.011a.291.291 0 0 0 .138.301zm1.2-7.755a.304.304 0 0 0 .237.362c.17.03.336-.073.381-.24a.345.345 0 0 0-.259-.378.312.312 0 0 0-.359.256zm27.02 1.707c.098.14.291.175.434.076l.009-.006a.306.306 0 0 0 .073-.422.299.299 0 0 0-.409-.103l-.018.011a.323.323 0 0 0-.089.444zm-40.163 37.283a.557.557 0 0 0 .46.613.538.538 0 0 0 .614-.441.551.551 0 0 0-.46-.613.537.537 0 0 0-.614.441zm2.022-12.808a.533.533 0 0 0 .441.614.533.533 0 0 0 .614-.441.533.533 0 0 0-.441-.614.537.537 0 0 0-.614.441zm2.003-12.805a.55.55 0 0 0 .46.613.532.532 0 1 0-.46-.613zm2.022-12.808a.535.535 0 1 0 1.054.171.535.535 0 0 0-1.054-.171zm47.1 26.014a.565.565 0 0 0 .767.119.541.541 0 0 0-.645-.868.55.55 0 0 0-.122.749zm-7.628-10.478a.55.55 0 0 0 .749.122.536.536 0 1 0-.624-.874l-.004.003a.543.543 0 0 0-.121.749zm-7.63-10.477a.543.543 0 0 0 .749.122.565.565 0 0 0 .119-.767.541.541 0 0 0-.868.645zm-47.583-3.163c.256.156.59.076.746-.178s.076-.59-.178-.746a.544.544 0 0 0-.746.178.553.553 0 0 0 .178.746zm35.186 29.898a.573.573 0 0 0 .657.398.543.543 0 0 0 .379-.654.528.528 0 0 0-.627-.403l-.011.003a.542.542 0 0 0-.398.656c-.002 0-.002 0 0 0zm-3.043-12.614c.072.29.364.47.655.398h.002a.524.524 0 0 0 .382-.635.53.53 0 1 0-1.037.235c-.002 0-.002.002-.002.002zm-3.038-12.596a.528.528 0 0 0 .627.403l.011-.003a.54.54 0 1 0-.641-.418l.003.018zm-33.28-13.145c.25.152.574.09.751-.141a.554.554 0 0 0-.159-.749.514.514 0 0 0-.734.141.534.534 0 0 0 .132.744l.01.005zm31.504 42.523a.532.532 0 0 0 1.036-.236.532.532 0 0 0-.618-.404.54.54 0 0 0-.418.64zM78.483 260.3a.541.541 0 0 0 .639.418.55.55 0 0 0 .421-.623.572.572 0 0 0-.643-.437.558.558 0 0 0-.417.642zm-2.505-12.671a.541.541 0 0 0 1.06-.205.531.531 0 0 0-.623-.421.557.557 0 0 0-.437.626zm-2.486-12.673a.514.514 0 0 0 .588.428l.033-.006c.287-.058.474-.334.421-.623s-.33-.479-.62-.425a.53.53 0 0 0-.422.626zm-16.835 18.145a.524.524 0 0 0 .423.617.538.538 0 0 0 .638-.407.547.547 0 0 0-.425-.636.556.556 0 0 0-.636.426zm2.547-12.673a.532.532 0 1 0 1.042.224l.003-.012a.556.556 0 0 0-.425-.636.524.524 0 0 0-.615.419c-.003.001-.005.002-.005.005zm43.558 16.566c.17.245.505.308.752.14a.526.526 0 0 0 .141-.733.52.52 0 0 0-.736-.161.536.536 0 0 0-.168.739l.011.015zm-7.159-10.748c.17.245.505.308.752.14a.526.526 0 0 0 .141-.733.52.52 0 0 0-.736-.161.536.536 0 0 0-.168.739l.011.015zm-7.16-10.748c.17.245.505.308.752.14a.526.526 0 0 0 .141-.733.538.538 0 0 0-.901.585.013.013 0 0 1 .008.008zm-7.18 15.175c.09.204.329.296.532.208a.406.406 0 0 0 .214-.516.386.386 0 0 0-.535-.206.399.399 0 0 0-.211.514zm-3.828-8.937a.408.408 0 1 0 .222-.543c-.004.002-.009.003-.012.006a.415.415 0 0 0-.21.537zm-16.816 7.962a.41.41 0 0 0 .412.395.423.423 0 0 0 .394-.412.401.401 0 0 0-.407-.395h-.003a.387.387 0 0 0-.394.382c-.002.012-.002.021-.002.03zm-.128-9.75a.43.43 0 0 0 .413.412.4.4 0 0 0 .394-.407v-.003a.388.388 0 0 0-.379-.396h-.014a.402.402 0 0 0-.414.394zm34.614-4.358c.152.154.4.158.554.006l.009-.009a.397.397 0 0 0 .018-.56l-.022-.022a.405.405 0 0 0-.559.585zm-30.709 1.226c.11.167.336.211.502.1a.331.331 0 0 0 .102-.483.34.34 0 0 0-.487-.12.353.353 0 0 0-.131.483l.014.02z" fill="#fff" opacity=".86"/><path d="M139.314 143.269c0 .343.015.687.015 1.03l-14.848 89.494c-4.211.312-8.293.535-12.244.671-75.629 2.527-101.94-26.982-101.94-26.982-6.504-60.344 32.208-68.299 42.221-81.181 13.491-17.343 17.578-27.56 41.113-43.032 23.551-15.472 40.474-18.732 40.474-18.732 8.75 17.64 15.971 15.051 15.971 15.051s-11.184 38.18-10.762 63.681z" fill="url(#g)"/><path d="m187.508 208.042-21.773 70.497s-24.923-5.038-35.342-23.723c-6.254-11.245-12.228-16.892-18.155-20.354-5.162-3.026-10.278-4.383-15.518-6.348-11.262-4.211-33.908-20.042-26.078-58.192 7.83-38.135 24.393-68.08 63.464-105.387l15.971 15.051s-11.183 38.181-10.762 63.682c0 .343.015.687.015 1.03.483 24.721 3.213 33.44 20.962 45.823 14.052 9.796 27.216 17.921 27.216 17.921z" fill="#23286b"/><path d="m155.831 62.508-.046.094a129.879 129.879 0 0 0-5.709 16.985s-17.343 5.958-15.971-15.051a23.033 23.033 0 0 0 3.197-7.253 59.453 59.453 0 0 0 6.504 2.48 51.565 51.565 0 0 0 6.987 2.09c.256.072.516.13.78.171.376.089.755.156 1.138.202.05.018.103.026.156.031.981.152 1.971.235 2.964.251z" fill="url(#h)"/><path d="M178.718 56.731s-12.235 22.773-41.398.565c.055.018-.05-.036 0 0 0 0 4.865-6.907-.253-11-5.093-4.107-8.664-10.065-3.06-14.326s6.782 3.308 13.091 2.174c6.334-1.146 13.427-9.019 13.427-9.019s12.489 9.106 26.362 8.623c-.204 2.149-.917 10.716.657 15.572 1.816 5.572-1.286 8.133-8.826 7.411z" fill="#ffbeb6"/><path d="M176.85 63.387a6.218 6.218 0 0 1-10.157-4.196c-.098-.942 1.356-1.27 1.454-.315a4.736 4.736 0 0 0 7.696 3.415c.751-.584 1.763.507 1.007 1.096z" fill="#1c2868"/><path d="M216.734 13.4c-4.159 13.754-17.741 22.403-31.962 20.358 10.972.372 23.193-4.781 30.965-25.069L114.895 0s-6.178 15.548-.513 30.834c4.93 13.302 18.778 23.799 22.938 26.462 0 0 4.863-6.903-.245-11.006-5.108-4.102-8.68-10.06-3.074-14.324s6.785 3.314 13.107 2.171 13.424-9.019 13.424-9.019a53.177 53.177 0 0 0 14.427 6.942c16.465 8.444 36.858.908 43.156-18.245a.724.724 0 0 0-.515-.883.726.726 0 0 0-.866.468z" fill="#23286b"/></svg></g><g transform="translate(731.0 62.0) rotate(0.0 193.0 349.0) scale(1.544 1.5442477876106195)"><svg width="250" height="452" viewBox="0 0 250 452"><linearGradient id="i" gradientUnits="userSpaceOnUse" x1="-2933.507" y1="-2842.295" x2="-3572.918" y2="-2159.533" gradientTransform="matrix(-0.0741 0.0016 -0.0016 -0.0741 -202.6477 55.0586)"><stop offset="0" style="stop-color:#ffbeb6"/><stop offset="1" style="stop-color:#f2a19c"/></linearGradient><path fill="url(#i)" d="M19.075 256.503s15.692 1.671 22.001-9.222c6.309-10.893 8.929-9.797 17.583-11.514 3.732-.742 17.623-4.14 28.314-6.93l-20.971-16.881c-9.221 7.785-22.098 17.917-27.837 19.156-9.43 2.021-18.19-1.039-22.42-.41-4.271.63-5.327 1.271-5.341 4.403 0 0-2.046.663-7.455 1.937-10.355 3.114 9.366 19.281 16.126 19.461z"/><linearGradient id="j" gradientUnits="userSpaceOnUse" x1="4637.506" y1="7121.739" x2="5947.727" y2="7121.739" gradientTransform="matrix(0.0741 0 0 0.0741 -253.6966 -94.8663)"><stop offset=".129" style="stop-color:#428dfc"/><stop offset=".999" style="stop-color:#1d72d8"/></linearGradient><path fill="url(#j)" d="M143.537 413.709c-.068.064-15.462 14.478-32.021 21.575C94.922 442.398 89.943 452 89.943 452l97.087-.003-13.661-38.288h-29.832z"/><path fill="#428DFC" d="M206.389 413.672c-1.68 1.563-16.292 14.923-31.903 21.613C157.891 442.398 152.911 452 152.911 452l97.089-.003-13.623-38.326-29.988.001z"/><linearGradient id="k" gradientUnits="userSpaceOnUse" x1="4425.734" y1="6433.304" x2="5696.934" y2="4875.462" gradientTransform="matrix(0.0741 0 0 0.0741 -253.6966 -94.8663)"><stop offset="0" style="stop-color:#23286b"/><stop offset=".432" style="stop-color:#1d225f"/><stop offset="1" style="stop-color:#151a4f"/></linearGradient><path fill="url(#k)" d="M151.159 177.208c-7.661 5.415-18.877 6.818-18.877 6.818l-20.001-2.13-2.642 34.225c-.81 19.805-3.929 44.43-.235 67.533 3.939 24.624 27.371 95.635 34.133 130.054h29.834c10.054-21.439 8.069-39.797 3.986-71.694-4.93-38.525 3.156-27.29-5.098-63.353-8.245-36.065-6.04-28.946-3.384-82.889.862-17.451 3.334-19.576-.49-29.978"/><path fill="#23286B" d="M123.562 227.406c1.581 21.014 4.778 43.804 10.113 63.129 5.687 20.558 57.715 99.364 72.712 123.137h29.989c-.277-6.745-.491-34.154-6.986-51.799-7.477-20.237-13.777-14.702-15.218-31.135-1.461-16.417-6.591-26.301-15.754-42.324-9.132-16.041-21.613-11.072-12.755-70.977a122.304 122.304 0 0 0-10.083-70.263c-1.236.511-2.572 1.04-3.99 1.581l-.117-.967s-2.46 1.265-6.299 3.261c-1.204.405-2.452.811-3.756 1.219-.056.283-.121.557-.182.833-15.493 8.091-42.942 22.644-41.304 23.362 2.27.995 3.63 50.943 3.63 50.943"/><path opacity=".86" fill="#FFF" d="M174.923 184.231a.188.188 0 0 0-.244.105.18.18 0 0 0 .092.241.186.186 0 0 0 .244-.105.19.19 0 0 0-.092-.241zm-4.172-1.712a.188.188 0 1 0 .107.244.197.197 0 0 0-.107-.244zm-4.161-1.71a.189.189 0 0 0-.142.35l.003.001a.174.174 0 0 0 .231-.108.174.174 0 0 0-.072-.233.075.075 0 0 0-.02-.01zm-4.935 16.969a.184.184 0 1 0-.097.242.185.185 0 0 0 .097-.242zm-1.733-4.153a.174.174 0 0 0-.242-.097.186.186 0 0 0-.109.239.202.202 0 0 0 .254.099.182.182 0 0 0 .097-.241zm-1.731-4.152a.205.205 0 0 0-.252-.111.202.202 0 0 0-.099.254c.04.094.147.137.241.097a.19.19 0 0 0 .11-.24zm-1.743-4.167a.184.184 0 0 0-.242-.097.199.199 0 0 0-.099.254c.04.094.147.137.241.097a.198.198 0 0 0 .1-.254zm11.582 5.172a.18.18 0 1 0 .003.255.172.172 0 0 0 .01-.244c-.004-.002-.009-.007-.013-.011zm-3.19-3.182a.181.181 0 0 0-.255.003.209.209 0 0 0-.053.107.18.18 0 0 0 .054.16.045.045 0 0 0 .035.018l.012.002a.16.16 0 0 0 .206-.022.183.183 0 0 0 .005-.26c0-.003-.002-.006-.004-.008zm-3.195-3.169a.18.18 0 1 0-.252.258.18.18 0 0 0 .254.01.183.183 0 0 0 .005-.26.019.019 0 0 0-.007-.008zm-3.192-3.183a.181.181 0 0 0-.255.003.183.183 0 0 0-.005.26l.006.006c.064.07.173.075.244.01l.014-.014a.184.184 0 0 0 .003-.263c-.003.001-.005 0-.007-.002zm-6.39 16.245a.193.193 0 0 0-.193.191c0 .105.084.192.191.193a.193.193 0 0 0 .193-.191.193.193 0 0 0-.191-.193zm33.991 1.456a.348.348 0 0 0-.492.023l-.008.01a.346.346 0 0 0 .032.487l.002.002c.143.129.363.12.492-.023l.008-.01a.346.346 0 0 0-.034-.489zm-6.449-5.609a.346.346 0 0 0-.487.032l-.002.002a.355.355 0 1 0 .535.469.367.367 0 0 0-.046-.503zm-6.44-5.595a.355.355 0 1 0 .033.502.35.35 0 0 0-.023-.493l-.01-.009zm-6.438-5.594a.348.348 0 0 0-.492.023l-.008.01a.344.344 0 0 0-.082.32l.012.002a.33.33 0 0 0 .102.18c.033.031.075.05.12.055a.348.348 0 0 0 .45-.196.35.35 0 0 0-.102-.394zm-6.633 38.35a.358.358 0 0 0-.332.375.34.34 0 0 0 .357.321l.019-.001a.358.358 0 0 0 .332-.375.349.349 0 0 0-.376-.32c.001 0 0 0 0 0zm-.605-8.521a.35.35 0 0 0-.32.376c.01.196.176.346.372.335a.352.352 0 0 0 .335-.372v-.006a.376.376 0 0 0-.387-.333zm-.592-8.52a.378.378 0 0 0-.334.387c.01.186.171.331.357.321l.019-.001a.348.348 0 0 0 .333-.362l-.001-.012a.359.359 0 0 0-.374-.333zm-.606-8.509a.35.35 0 0 0-.32.376v.001a.354.354 0 1 0 .329-.377h-.009zm-.593-8.518a.356.356 0 0 0 .055.709.34.34 0 0 0 .321-.357l-.001-.019a.36.36 0 0 0-.375-.333zm23.967-4.852a.337.337 0 0 0-.433.204l-.005.017a.347.347 0 0 0 .65.242l.007-.023a.338.338 0 0 0-.204-.433.026.026 0 0 0-.015-.007zm-8.086-2.712a.35.35 0 0 0-.447.213l-.005.018a.343.343 0 0 0 .216.436l.004.001a.352.352 0 0 0 .449-.212l.002-.006a.358.358 0 0 0-.219-.45zm3.278 33.132a.36.36 0 1 0-.174.478l.006-.003a.362.362 0 0 0 .168-.475zm-3.811-7.64a.36.36 0 1 0-.174.477l.006-.003a.362.362 0 0 0 .168-.474zm-3.812-7.639a.375.375 0 0 0-.488-.157.357.357 0 0 0-.149.485.36.36 0 0 0 .469.158.378.378 0 0 0 .168-.486zm-3.825-7.629a.35.35 0 1 0-.636.292l.007.016a.348.348 0 0 0 .466.159l.01-.004a.334.334 0 0 0 .153-.463zm-3.81-7.639a.35.35 0 0 0-.629.307.362.362 0 0 0 .474.167.35.35 0 0 0 .158-.47l-.003-.004zm-17.519 32.931a.339.339 0 0 0-.432.206l-.007.026a.343.343 0 0 0 .216.436l.004.001a.358.358 0 0 0 .451-.218.376.376 0 0 0-.232-.451zm2.713-8.087a.352.352 0 0 0-.449.212l-.002.006a.358.358 0 0 0 .218.451.375.375 0 0 0 .452-.231.343.343 0 0 0-.216-.436c-.001-.002-.002-.002-.003-.002zm37.381 1.809a.314.314 0 1 0-.533.331l.002.003a.313.313 0 0 0 .433.096.312.312 0 0 0 .098-.43zm-4.037-6.46a.313.313 0 1 0-.098.432.306.306 0 0 0 .105-.421l-.007-.011zm-4.036-6.473a.22.22 0 0 0-.124-.119l-.012-.002a.32.32 0 0 0-.397.466l.002.003a.317.317 0 0 0 .432.098.258.258 0 0 0 .127-.186.274.274 0 0 0-.028-.26zm-4.037-6.46a.317.317 0 0 0-.533.34.318.318 0 0 0 .434.104.32.32 0 0 0 .101-.443c-.002.002-.002.001-.002-.001zm-4.026-6.457a.335.335 0 0 0-.446-.1.319.319 0 0 0 .332.542.334.334 0 0 0 .114-.442zm-15.682 30.992a.313.313 0 0 0-.376.235l-.001.005a.305.305 0 0 0 .216.373l.014.003a.332.332 0 0 0 .39-.238.334.334 0 0 0-.243-.378zm1.715-7.423a.313.313 0 0 0-.376.235l-.001.005a.306.306 0 0 0 .215.373l.014.003a.313.313 0 0 0 .376-.229.325.325 0 0 0-.228-.387zm1.716-7.422a.313.313 0 0 0-.376.235l-.001.005a.297.297 0 0 0 .227.375.313.313 0 0 0 .376-.235l.001-.005a.317.317 0 0 0-.227-.375zm1.702-7.424a.328.328 0 0 0-.377.241.318.318 0 0 0 .617.149.335.335 0 0 0-.24-.39zm1.728-7.422a.332.332 0 0 0-.39.238.316.316 0 1 0 .616.142l.001-.005a.328.328 0 0 0-.227-.375zm21.775 1.881a.333.333 0 0 0-.445.079.321.321 0 0 0 .079.445.316.316 0 0 0 .44-.095.318.318 0 0 0-.074-.429zm-6.208-4.415a.316.316 0 0 0-.442.065l-.001.001a.333.333 0 0 0 .079.445c.145.1.344.065.445-.079a.303.303 0 0 0-.081-.432zm-6.223 28.861a.33.33 0 0 0-.255.373.317.317 0 0 0 .624-.104.323.323 0 0 0-.369-.269zm-1.255-7.516a.33.33 0 0 0-.255.373c.03.169.191.283.359.254a.302.302 0 0 0 .254-.359.318.318 0 0 0-.358-.268zm-1.256-7.503a.302.302 0 0 0-.254.359.31.31 0 1 0 .614-.098l-.001-.007a.302.302 0 0 0-.34-.257l-.019.003zm-1.254-7.514a.317.317 0 0 0-.265.358.352.352 0 0 0 .09.178l.012.002a.308.308 0 0 0 .27.076.311.311 0 0 0-.107-.614zm18.796 2.04a.187.187 0 0 0-.265-.011.19.19 0 0 0-.011.267.187.187 0 0 0 .265.011.196.196 0 0 0 .011-.267zm-3.064-3.278a.187.187 0 0 0-.265-.011.19.19 0 0 0 .256.278.197.197 0 0 0 .009-.267zm-3.074-3.294a.18.18 0 0 0-.254-.01.175.175 0 0 0-.011.267.18.18 0 0 0 .254.01.175.175 0 0 0 .011-.267zm-3.063-3.279a.195.195 0 0 0-.265-.011.185.185 0 0 0-.004.263l.005.005a.18.18 0 0 0 .254.01.2.2 0 0 0 .01-.267zm-8.646 16.431a.186.186 0 0 0-.191.177.186.186 0 0 0 .177.191.186.186 0 0 0 .191-.177.183.183 0 0 0-.177-.191zm.149-4.492a.18.18 0 0 0-.191.165v.015a.186.186 0 0 0 .177.191.193.193 0 0 0 .202-.176.19.19 0 0 0-.186-.193c.002-.002 0-.002-.002-.002zm.164-4.489a.18.18 0 0 0-.191.165v.015a.186.186 0 0 0 .177.191.185.185 0 0 0 .014-.371zm.149-4.492a.084.084 0 0 0-.052.005l-.012-.002a.198.198 0 0 0-.127.174.186.186 0 0 0 .177.191.207.207 0 0 0 .184-.127l.006-.05a.18.18 0 0 0-.165-.191h-.011zm16.829-4.106a.172.172 0 0 0-.232.072l-.01.022a.176.176 0 0 0 .095.242c.093.04.2-.002.242-.094a.18.18 0 0 0-.087-.239c-.004-.001-.006-.001-.008-.003zm-8.282 13.804a.179.179 0 0 0-.224-.116l-.017.006a.181.181 0 0 0-.11.24.2.2 0 0 0 .239.109.186.186 0 0 0 .112-.239zm-1.582-4.221a.178.178 0 0 0-.23-.102l-.011.004a.19.19 0 0 0-.109.239.2.2 0 0 0 .239.109.189.189 0 0 0 .116-.241l-.005-.009zm-1.571-4.207a.2.2 0 0 0-.239-.109.186.186 0 0 0-.109.239c.03.094.129.145.224.116l.017-.006a.181.181 0 0 0 .113-.23c-.004-.004-.005-.007-.006-.01zm-1.571-4.207a.2.2 0 0 0-.239-.109.186.186 0 0 0-.109.239c.03.094.129.145.224.116l.017-.006a.191.191 0 0 0 .107-.24zm-12.569 12.076a.172.172 0 0 0-.232.072l-.01.022a.183.183 0 1 0 .336.148.183.183 0 0 0-.094-.242zm1.866-4.088a.172.172 0 0 0-.232.072l-.01.022a.178.178 0 0 0 .081.24.194.194 0 0 0 .255-.093.18.18 0 0 0-.087-.239c-.003 0-.005 0-.007-.002zm1.866-4.087a.192.192 0 0 0-.253.079.192.192 0 1 0 .348.162.191.191 0 0 0-.095-.241zm25.66 10.358a.201.201 0 0 0-.278-.068l-.005.003a.206.206 0 0 0-.075.283l.008.014a.201.201 0 0 0 .278.068l.005-.003a.218.218 0 0 0 .067-.297zm-2.766-4.321a.201.201 0 0 0-.278-.068l-.005.003a.217.217 0 0 0-.067.297c.064.1.197.129.297.067a.208.208 0 0 0 .064-.285l-.011-.014zm-2.755-4.32a.216.216 0 0 0-.296-.07.216.216 0 0 0-.07.296l.002.003c-.002.012.011.015.022.028.073.074.186.09.275.039.1-.064.13-.195.067-.296zm-2.765-4.322-.043-.057c-.012-.002-.023-.017-.048-.02a.198.198 0 0 0-.206.01c-.1.064-.129.197-.066.297s.197.129.297.066a.216.216 0 0 0 .066-.296zm-13.099 16.655a.231.231 0 0 0-.253.169.21.21 0 0 0 .156.251.198.198 0 0 0 .251-.156.215.215 0 0 0-.153-.263l-.001-.001zm1.101-5.01a.231.231 0 0 0-.253.169.21.21 0 0 0 .156.251.215.215 0 0 0 .263-.153.236.236 0 0 0-.166-.267zm1.1-5.008a.231.231 0 0 0-.253.169.21.21 0 0 0 .156.251.199.199 0 0 0 .252-.169.207.207 0 0 0-.155-.251zm1.101-5.01a.221.221 0 0 0-.253.169.21.21 0 0 0 .156.251.199.199 0 0 0 .252-.169.208.208 0 0 0-.155-.251zm15.399-3.986a.227.227 0 0 0-.301.06.2.2 0 0 0 .062.288c.085.067.21.052.276-.034l.011-.016a.224.224 0 0 0-.048-.298zm-7.948 16.73a.208.208 0 0 0-.236-.175l-.007.001-.012-.002a.217.217 0 0 0-.161.246.208.208 0 0 0 .236.175l.007-.001a.25.25 0 0 0 .082-.04.193.193 0 0 0 .091-.204zm-1.15-5.232a.231.231 0 0 0-.176.256.224.224 0 0 0 .257.162.204.204 0 0 0 .161-.242l-.001-.003a.21.21 0 0 0-.241-.173zm-.896-5.043a.211.211 0 0 0-.174.244.211.211 0 0 0 .244.174.211.211 0 0 0 .174-.244.208.208 0 0 0-.236-.175l-.008.001zm-.906-5.045a.206.206 0 0 0-.161.244v.002a.2.2 0 0 0 .224.167l.021-.004a.212.212 0 0 0 .174-.244.213.213 0 0 0-.256-.162l-.002-.003zm-16.347 11.12a.2.2 0 0 0-.288.062.206.206 0 0 0 .05.287.21.21 0 0 0 .3-.047.222.222 0 0 0-.062-.302zm2.939-4.207a.218.218 0 0 0-.301.06.201.201 0 0 0 .062.288c.085.067.21.052.277-.034l.011-.016a.213.213 0 0 0-.049-.298c.001.001.001 0 0 0zm2.94-4.207a.213.213 0 0 0-.296.052l-.005.008a.211.211 0 0 0 .349.24.226.226 0 0 0-.048-.3zm21.014 33.714a.372.372 0 0 0-.312.415c.033.198.22.331.417.3a.377.377 0 0 0 .312-.415.364.364 0 0 0-.417-.3zm-1.372-8.691a.364.364 0 0 0 .117.718.363.363 0 0 0-.117-.718zm-1.359-8.689a.363.363 0 0 0-.314.404.363.363 0 0 0 .404.314l.016-.002a.372.372 0 0 0 .312-.415.365.365 0 0 0-.418-.301zm-1.372-8.691a.359.359 0 0 0-.301.41l.001.007a.363.363 0 0 0 .716-.116v-.001a.359.359 0 0 0-.41-.301l-.006.001zm-1.359-8.69a.361.361 0 0 0 .105.714.372.372 0 0 0 .312-.415.365.365 0 0 0-.417-.299zm-30.264 26.132a.367.367 0 0 0-.438.589c.167.116.396.08.522-.08a.375.375 0 0 0-.084-.509zm5.178-7.108a.365.365 0 0 0-.426.59.365.365 0 0 0 .426-.59zm5.175-7.11a.356.356 0 0 0-.505.069.385.385 0 0 0 .08.522.369.369 0 0 0 .508-.082.36.36 0 0 0-.073-.502l-.01-.007zm5.177-7.109a.358.358 0 0 0-.502.062l-.005.007a.39.39 0 0 0 .08.522.368.368 0 0 0 .508-.082.347.347 0 0 0-.056-.489.1.1 0 0 0-.025-.02zm5.19-7.12a.369.369 0 0 0-.508.082.367.367 0 0 0 .589.438.382.382 0 0 0-.081-.52zm-2.142 32.434a.358.358 0 0 0-.431.263l-.001.006a.37.37 0 0 0 .257.444.387.387 0 0 0 .446-.27.368.368 0 0 0-.271-.443c.001 0 0 0 0 0zm2.061-8.547a.35.35 0 0 0-.428.249l-.005.023a.356.356 0 0 0 .258.431.37.37 0 0 0 .446-.27v-.001a.35.35 0 0 0-.249-.428l-.022-.004zm2.065-8.559a.367.367 0 0 0-.162.716.358.358 0 0 0 .431-.263l.001-.007a.368.368 0 0 0-.27-.446c.001 0 0 0 0 0zm2.061-8.548a.362.362 0 1 0 .27.446.367.367 0 0 0-.27-.446c.001 0 .001 0 0 0zm-.871 28.492a.366.366 0 1 0-.15.718.366.366 0 0 0 .15-.718zm1.699-8.596a.387.387 0 0 0-.436.297.375.375 0 0 0 .286.423.366.366 0 0 0 .434-.283.375.375 0 0 0-.284-.437zm1.686-8.587a.363.363 0 0 0-.423.286.362.362 0 0 0 .286.423.366.366 0 0 0 .434-.283.375.375 0 0 0-.297-.426zm1.699-8.598a.356.356 0 0 0-.421.277l-.001.008a.365.365 0 0 0 .286.423.348.348 0 0 0 .417-.263l.004-.023a.356.356 0 0 0-.277-.421l-.008-.001zm1.7-8.597a.356.356 0 0 0-.421.277l-.001.008a.345.345 0 0 0 .129.35c.025.003.035.018.048.02.03.028.067.046.107.053a.36.36 0 1 0 .138-.708zm7.861 12.444a.376.376 0 0 0-.289.431.36.36 0 0 0 .423.287.36.36 0 0 0 .287-.423l-.002-.008a.357.357 0 0 0-.415-.288l-.004.001zm-1.73-8.587a.37.37 0 0 0-.289.431.367.367 0 0 0 .719-.143.37.37 0 0 0-.43-.288zm-27.513 19.604a.353.353 0 0 0-.49.096l-.008.014a.36.36 0 0 0 .097.498.37.37 0 0 0 .51-.095.366.366 0 0 0-.098-.506l-.011-.007zm4.859-7.293a.353.353 0 0 0-.49.096l-.008.014a.36.36 0 0 0 .097.498.37.37 0 0 0 .51-.095.366.366 0 0 0-.098-.506l-.011-.007zm4.857-7.293a.367.367 0 0 0-.5.109.36.36 0 0 0 .097.498.37.37 0 0 0 .51-.095.364.364 0 0 0-.098-.506l-.009-.006zm4.858-7.293a.377.377 0 0 0-.5.109.36.36 0 0 0 .097.498c.169.111.394.07.51-.095a.367.367 0 0 0-.104-.509l-.003-.003zm-.022 17.751a.26.26 0 0 0-.352.116l-.011.025a.274.274 0 1 0 .363-.141zm2.6-6.077a.272.272 0 0 0-.363.14.276.276 0 1 0 .363-.14zm2.599-6.076a.276.276 0 1 0 .141.364.28.28 0 0 0-.141-.364zm2.6-6.077a.284.284 0 0 0-.365.153.272.272 0 0 0 .155.353.264.264 0 0 0 .348-.134l.003-.008a.271.271 0 0 0-.141-.364zm6.084 17.64a.272.272 0 0 0-.279.266v.002c.003.149.12.27.268.279a.278.278 0 0 0 .279-.268.262.262 0 0 0-.248-.278l-.02-.001zm.072-6.605a.263.263 0 0 0-.267.258v.01a.272.272 0 0 0 .265.279h.002a.29.29 0 0 0 .28-.279.273.273 0 0 0-.277-.269c0 .001 0 .003-.003.001zm.089-6.615a.289.289 0 0 0-.28.279.263.263 0 0 0 .255.268h.015a.262.262 0 0 0 .278-.248v-.02a.272.272 0 0 0-.265-.279h-.003zm.072-6.604a.264.264 0 0 0-.265.269v.001a.262.262 0 0 0 .248.278h.02a.272.272 0 0 0 .279-.266v-.002a.296.296 0 0 0-.282-.28zm-23.362 10.148a.264.264 0 0 0-.373-.022l-.007.006a.27.27 0 0 0-.019.379l.016.016a.268.268 0 0 0 .381.002.27.27 0 0 0 .002-.381zm4.73-4.622a.294.294 0 0 0-.395-.003.28.28 0 0 0 .391.398.294.294 0 0 0 .004-.395zm4.728-4.609a.27.27 0 0 0-.381-.017l-.014.014a.279.279 0 0 0-.002.383.275.275 0 0 0 .397-.38zm9.368.086a.143.143 0 0 0-.196.045l-.002.004a.153.153 0 0 0 .046.21h.001a.144.144 0 0 0 .198-.05.15.15 0 0 0-.047-.209c.001 0 .001 0 0 0zm1.927 10.017a.23.23 0 0 0-.32.065l-.01.017a.224.224 0 0 0 .048.314c.006.004.014.008.021.014a.245.245 0 0 0 .34-.067.24.24 0 0 0-.066-.333c-.002-.004-.008-.007-.013-.01zm-6.624-10.513a.246.246 0 0 0-.398.289.244.244 0 0 0 .348.062.255.255 0 0 0 .05-.351z"/><linearGradient id="l" gradientUnits="userSpaceOnUse" x1="5232.688" y1="2514.729" x2="5390.818" y2="4254.173" gradientTransform="matrix(0.0741 0 0 0.0741 -253.6966 -94.8663)"><stop offset="0" style="stop-color:#a1c3fc"/><stop offset=".696" style="stop-color:#81aef2"/><stop offset="1" style="stop-color:#78a9ef"/></linearGradient><path fill="url(#l)" d="M76.751 69.474s15.375-1.412 39.61 8.693 31.759 18.999 45.507 25.328c13.748 6.329 49.324 15.662 47.776 55.346 0 0-7.384 25.213-83.657 21.061L63.233 82.449s9.841-1.447 13.518-12.975z"/><path fill="#A1C3FC" d="M64.603 87.486s18.338 33.259 22.756 55.231c4.417 21.974 3.873 29.997-9.226 44.146-10.224 11.042-19.999 20.482-19.999 20.482l31.898 56.442s20.448-8.998 25.887-26.996c6.118-20.24 15.019-23.501 23.898-29.223 8.88-5.721 25.347-23.56 11.48-54.839s-34.433-59.964-74.971-84.675"/><linearGradient id="m" gradientUnits="userSpaceOnUse" x1="4425.325" y1="2493.786" x2="4148.132" y2="2107.396" gradientTransform="matrix(0.0741 0 0 0.0741 -253.6966 -94.8663)"><stop offset="0" style="stop-color:#ffbeb6"/><stop offset=".033" style="stop-color:#febdb5"/><stop offset=".612" style="stop-color:#f5a8a3"/><stop offset="1" style="stop-color:#f2a19c"/></linearGradient><path fill="url(#m)" d="M51.304 71.018s10.765 11.4 13.299 16.466c0 0 4.116.634 9.498-10.766L61.436 60.886 51.304 71.018z"/><path fill="#FFBEB6" d="M27.557 33.652s-1.603 11.909-5.383 16.149c-5.361 6.013-4.339 6.648 2.217 9.499 0 0 14.412 24.705 38.318 5.479 0 0 10.443-9.278 9.809-14.661-.633-5.383-2.851-13.617-8.55-14.884-5.698-1.266-35.462-10.448-36.411-1.582z"/><circle fill="#E94A47" cx="70.094" cy="11.425" r="11.425"/><path fill="#E94A47" d="M123.021 51.185a16.8 16.8 0 0 0-12.703-9.225c-7.21-.924-20.346 4.951-24.869-2.625a48.06 48.06 0 0 1-.947-2.191 11.66 11.66 0 0 1-.244-.926.45.45 0 0 0-.256-.334c-.028-.075-.056-.14-.085-.216A26.964 26.964 0 0 0 73.58 22.79c6.264-.229 11.157-5.493 10.929-11.757a11.31 11.31 0 0 0-.062-.845c-.065-.672-1.123-.679-1.058 0 .686 5.647-3.334 10.779-8.98 11.465-.91.109-1.829.099-2.735-.034-5.979-3.384-14.134-5.386-25.016-4.988-22.106.804-24.792 17.628-21.913 28.518.286-.73.569-1.383.802-2.145l.032-.084.666-2.424.074-.286 1.566-5.631s10.064 1.904 15.502 8.435c5.439 6.531 13.334 3.809 16.054 1.904 2.719-1.904 8.159 1.365 5.703 7.069-.14.328-.296.678-.458 1.044-5.745 9.602-2.618 22.045 6.983 27.789a20.287 20.287 0 0 0 5.158 2.184.528.528 0 0 0 .281-1.02A19.226 19.226 0 0 1 63.06 65.942c1.644 4.744 6.46 10.005 17.862 15.16l38.9-27.475a16.166 16.166 0 0 0-17.143-8.16c-8.99 1.392-12.696 1.161-15.649-3.263a14.155 14.155 0 0 0 8.156 2.156c4.37-.053 8.617-1.592 12.994-1.477a15.797 15.797 0 0 1 13.927 8.838c.315.601 1.229.067.914-.536z"/><path fill="#1C2868" d="M30.76 44.761a5.453 5.453 0 0 1-9.585-.954c-.32-.765.817-1.409 1.14-.632a4.15 4.15 0 0 0 7.323.921c.483-.68 1.608-.021 1.122.665z"/></svg></g></svg>