<svg height="1114" viewBox="0 0 1148.006 1113.388" width="1149" xmlns="http://www.w3.org/2000/svg"><path d="m462.606 244.535s2.624 18.526 35.493 20.873c-4.304-29.739-12.409-25.591-13.975-27.156s-21.519 6.283-21.519 6.283z" fill="#031447"/><path d="m498.099 266.908c-.036 0-.071-.001-.107-.004-33.69-2.407-36.757-21.354-36.872-22.159-.097-.688.29-1.352.937-1.606 20.192-7.942 22.329-6.715 23.059-6.016.132.049.43.114.653.163 3.277.721 10.097 2.22 13.814 27.907.065.449-.077.904-.386 1.236-.285.306-.683.479-1.098.479zm-33.733-21.45c1.156 3.833 6.778 15.946 31.967 18.299-3.442-21.835-8.858-23.025-11.208-23.542-.624-.137-1.266-.278-1.8-.678-1.934-.151-10.981 2.836-18.959 5.92zm-1.76-.924h.01zm20.458-5.223s0 .001.001.002c0 0 0-.001-.001-.002z" fill="#031447"/><path d="m710.884 54.078-227.479 171.652 34.957 14.087 235.032-175.984-21.255-15.028z" fill="#fff"/><path d="m518.362 241.318c-.189 0-.379-.036-.561-.109l-34.957-14.087c-.501-.202-.855-.658-.926-1.194s.152-1.068.583-1.394l227.479-171.652c.161-.122.346-.21.542-.259l21.255-5.273c.424-.104.871-.021 1.228.231l21.255 15.028c.392.277.627.725.634 1.204.006.48-.217.934-.601 1.221l-235.033 175.984c-.264.197-.58.299-.899.299zm-31.936-15.987 31.713 12.78 232.706-174.243-19.011-13.442-20.292 5.034-225.117 169.871z" fill="#031447"/><path d="m504.623 465.563-2.62.78-12.59-46.84c5.1 15.42 10.21 30.91 15.21 46.06zm3.14 9.5-3.17.95 19.99 74.39 7.3-2.22c-7.14-21.66-15.42-46.75-24.12-73.12zm14.09-4.22-9.3 2.78c8.07 24.46 16.21 49.12 24.11 73.1l5.15-1.57zm-32.89-122.4-15.87 5.71c11.09 33.51 23.58 71.34 36.33 109.97l9.83-2.94zm3.37-94.13c3.47-3.57 3.39-9.27-.18-12.73-3.56-3.47-9.26-3.39-12.72.18-17.24 17.73-20.52 41.87-20.98 54.21-.18 4.58.04 7.53.07 7.95l.06.82 3.06 11.4 4.91 18.27c1.11 3.36 2.24 6.77 3.39 10.24l16.42-5.91-8.31-30.91-1.62-6.04c-.09-2.33-.18-9.92 1.73-19.02 1.95-9.24 5.97-20.03 14.17-28.46zm-192.3 123.56-69.94 26.72-8.68-17.11 70.97-27.4zm428.04-257.74c-.42 1.6-1.37 3.07-2.79 4.12l-67.51 50.13-5.83-21.06 4.4-3.28 69.94-28.93c.64-.27 1.24-.59 1.79-.98zm-74.61 57.45-64.22 47.68-6-20.76 64.4-47.97zm-68.5 50.87-60.9 45.21-6.07-20.55 60.96-45.42zm-129.01 89.86-72.8 27.81c-2.4-6.38-4.71-12.54-6.91-18.41l73.42-28.35c2.01 6.02 4.1 12.36 6.29 18.95zm-77.47 29.6-73.78 28.18-7.65-17.81 74.53-28.77c2.2 5.87 4.51 12.02 6.9 18.4zm-157.78 60.26-42.92 16.4-9.09-16.74 43.34-16.73zm-167.58 64.02-32.13 12.27-.78-1.34 26.63-21.95zm119.94-45.82-59.61 22.77-9.22-16.43 59.76-23.07zm-64.33 24.58-50.88 19.43-7.1-12.44 10.45-8.62 38.32-14.79zm349.85-146.21-.06-.82c-.03-.42-.25-3.37-.07-7.95l-4.12 1.59c2 6.01 4.1 12.35 6.3 18.97l1.01-.39zm55.13-48.45-35.55 26.48c-1.91 9.1-1.82 16.69-1.73 19.02l1.62 6.04 41.74-30.99z" fill="#031447"/><path d="m462.606 244.535 25.734-26.992c4.346-3.918 9.157-7.289 14.324-10.036l16.558-8.803 2.482 38.611-23.605 28.093s-13.483-13.824-35.493-20.873z" fill="#fff"/><path d="m498.098 266.908c-.403 0-.79-.162-1.073-.452-.133-.136-13.51-13.649-34.877-20.493-.492-.158-.868-.558-.996-1.058-.127-.5.011-1.032.368-1.406l25.734-26.992c.026-.027.053-.054.081-.079 4.433-3.997 9.353-7.444 14.624-10.246l16.558-8.803c.732-.39 1.64-.111 2.028.62.389.731.111 1.64-.62 2.028l-16.558 8.803c-5.038 2.678-9.741 5.971-13.981 9.788l-24.066 25.242c17.408 6.077 29.039 15.98 32.664 19.352l23.031-27.411c.533-.634 1.479-.717 2.113-.184s.716 1.479.184 2.113l-24.065 28.641c-.272.324-.669.518-1.092.534-.019 0-.038 0-.057 0z" fill="#031447"/><path d="m809.289 862.86c-15.666-4.473-29.652-24.079-31.246-43.788s9.812-32.062 25.479-27.589c15.666 4.473 29.652 24.079 31.246 43.788s-9.812 32.062-25.479 27.589z" fill="#defe48"/><path d="m780.728 778.493c.105-.076.224-.13.337-.194.451-.256.907-.502 1.374-.728l-21.736 10.518c-42.931 20.766 4.725 120.115 47.935 99.205l21.736-10.518c-40.946 14.371-84.509-73.145-49.645-98.283z" fill="#031447"/><path d="m846.741 838.693c-2.259-28.035-22.161-55.909-44.435-62.273-22.283-6.356-38.505 11.205-36.237 39.24 2.26 28.026 22.162 55.9 44.445 62.265 22.275 6.355 38.496-11.205 36.228-39.232zm-37.452 24.167c-15.666-4.473-29.652-24.079-31.246-43.788s9.812-32.062 25.479-27.589c15.666 4.473 29.652 24.079 31.246 43.788s-9.812 32.062-25.479 27.589z" fill="#fff"/><path d="m819.333 880.712c-2.981 0-6.077-.445-9.231-1.345-22.802-6.514-43.226-35.039-45.528-63.587-1.271-15.715 3.13-28.936 12.076-36.271 6.982-5.726 16.24-7.335 26.068-4.532 22.797 6.514 43.215 35.044 45.519 63.594 1.271 15.711-3.129 28.929-12.075 36.265-4.739 3.886-10.527 5.876-16.829 5.876zm-25.944-104.107c-5.575 0-10.608 1.756-14.837 5.223-8.174 6.703-12.179 18.99-10.988 33.71 2.21 27.406 21.662 54.745 43.361 60.944 8.979 2.562 17.047 1.19 23.334-3.966 8.173-6.702 12.178-18.986 10.987-33.703-2.209-27.41-21.657-54.753-43.352-60.952-2.943-.839-5.789-1.257-8.505-1.257zm22.11 88.663c-2.139 0-4.359-.319-6.621-.965-16.188-4.623-30.691-24.859-32.329-45.109-.906-11.199 2.249-20.634 8.656-25.886 5.025-4.12 11.678-5.281 18.729-3.267 16.189 4.623 30.692 24.859 32.33 45.109.906 11.199-2.25 20.634-8.656 25.886-3.414 2.798-7.578 4.231-12.108 4.231zm-5.798-3.85c6.168 1.761 11.701.827 16.004-2.702 5.635-4.619 8.393-13.12 7.568-23.324-1.545-19.108-15.077-38.159-30.164-42.467-6.166-1.76-11.7-.826-16.004 2.702-5.635 4.619-8.393 13.121-7.567 23.324 1.545 19.107 15.078 38.157 30.163 42.467z" fill="#031447"/><path d="m376.51 1085.707c-16.184-8.274-27.267-32.749-24.763-54.666 2.503-21.916 17.652-32.98 33.836-24.706s27.267 32.749 24.763 54.665c-2.503 21.916-17.652 32.98-33.836 24.706z" fill="#defe48"/><path d="m363.433 987.203c.131-.06.273-.094.411-.14.549-.183 1.101-.354 1.66-.501l-26.06 6.828c-51.468 13.476-20.721 132.496 31.084 118.922l26.06-6.828c-47.917 6.904-76.735-98.281-33.155-118.281z" fill="#031447"/><path d="m422.714 1067.327c3.57-31.173-12.206-65.975-35.215-77.742-23.021-11.761-44.563 3.964-48.124 35.14-3.568 31.164 12.208 65.965 35.227 77.735 23.012 11.758 44.553-3.967 48.112-35.133zm-46.204 18.38c-16.184-8.274-27.267-32.749-24.763-54.666 2.503-21.916 17.652-32.98 33.836-24.706s27.267 32.749 24.763 54.665c-2.503 21.916-17.652 32.98-33.836 24.706z" fill="#fff"/><g fill="#031447"><path d="m389.741 1107.844c-5.18 0-10.544-1.351-15.821-4.047-23.496-12.015-39.661-47.563-36.035-79.242 1.99-17.419 9.625-30.893 20.947-36.966 8.825-4.735 19.248-4.499 29.35.661 23.49 12.014 39.648 47.566 36.023 79.248-1.988 17.415-9.622 30.886-20.944 36.959-4.212 2.26-8.789 3.387-13.52 3.387zm-17.372-120.683c-4.226 0-8.3 1.022-12.119 3.071-10.442 5.602-17.508 18.236-19.384 34.664-3.496 30.541 11.945 64.737 34.42 76.229 9.327 4.766 18.51 5.004 26.557.688 10.442-5.602 17.507-18.233 19.382-34.656 3.498-30.545-11.938-64.744-34.408-76.236-4.903-2.505-9.768-3.76-14.447-3.76zm14.79 102.78c-3.712 0-7.554-.967-11.331-2.898-16.665-8.519-28.136-33.717-25.571-56.171 1.416-12.396 6.87-21.995 14.964-26.335 6.337-3.398 13.812-3.235 21.045.464 16.665 8.519 28.136 33.717 25.571 56.171-1.416 12.396-6.871 21.995-14.965 26.335-3.028 1.624-6.316 2.434-9.713 2.434zm-12.213-84.864c-2.898 0-5.691.7-8.307 2.103-7.214 3.869-12.099 12.628-13.401 24.032-2.435 21.315 8.312 45.162 23.956 53.16 6.423 3.283 12.736 3.453 18.261.492 7.214-3.869 12.099-12.628 13.402-24.033 2.435-21.315-8.312-45.162-23.956-53.16-3.381-1.729-6.733-2.594-9.955-2.594z"/><path d="m710.884 54.078s.783 5.837 10.174 12.522c17.335 12.339 26.609 12.261 26.609 12.261s11.771-15.846 1.565-23.217c-19.957-14.413-38.348-1.565-38.348-1.565z"/><path d="m747.661 80.361c-.608 0-10.151-.209-27.473-12.539-9.81-6.982-10.755-13.28-10.791-13.544-.074-.556.168-1.107.628-1.429.193-.135 19.503-13.286 40.085 1.579 2.595 1.875 4.153 4.39 4.629 7.476 1.258 8.145-5.578 17.459-5.869 17.852-.28.377-.721.602-1.191.605zm-35.035-25.613c.637 1.767 2.744 5.962 9.302 10.63 13.917 9.906 22.528 11.625 24.998 11.922 1.45-2.163 5.746-9.16 4.849-14.944-.355-2.292-1.474-4.09-3.42-5.496-16.641-12.018-31.916-4.385-35.728-2.111zm-1.742-.669h.01z"/></g><path d="m1112.72 690.354-4.89-22.616-.074-.041-.024-.113-262.92-147.41c-14.25-55.33-84.02-326.46-94.46-370.33-1.25-5.25-2.51-10.32-3.72-15.23-10.69-43.14-15.36-66.5 3.98-84.74l-13.72-14.55c-20.16 19.01-22.03 41.4-17.69 67.92-.06.03-.13.04-.19.07l-526.729 212.229c-8.34 3.36-16.09 8.05-22.93 13.89l-165.8 141.23c-4.11 3.5-4.74 9.61-1.44 13.88 1.99 2.58 4.98 3.92 8 3.92.52 0 1.05-.04 1.57-.12l143.37 244.84c-1.69 9.07 8.09 16.78 30.11 14.94 9.51-.79 221.22-70.21 311.76-100.01l1.61 15.91.12-.04-2.28 3.62c-1.21 1.95-122.09 194.76-151.58 245.21-30.48 52.13-17.22 79.61-.44 114.4 1.58 3.27 3.21 6.65 4.87 10.18l1.45 3.1 23.35 15.87c2.15 1.46 4.59 2.16 7.01 2.16 4 0 7.93-1.92 10.35-5.47 3.88-5.71 2.4-13.49-3.31-17.37l-17.69-12.03c-1.19-2.5-2.37-4.93-3.51-7.31-7.92-16.4-13.89-28.8-15.13-41.97 1.28-.15 2.55-.54 3.74-1.21l116.08-65.06c.05 1.98.15 3.98.29 6 1.614 22.699 8.73 45.203 20.224 64.346.659 1.101 1.344 2.183 2.032 3.261.138.216.268.438.407.653.893 1.382 1.807 2.745 2.747 4.086l3.593 5.128 33.167 1.025c.132.004.262.006.393.006 6.725 0 12.278-5.345 12.487-12.114.08-2.599-.64-5.036-1.936-7.077-2.126-3.463-5.896-5.825-10.263-5.964l-20.427-.63c-9.775-15.918-16.046-35.374-17.395-54.335-1.5-21.1 3-39.594 12.673-52.075 10.469-13.508 59.802-76.4 112.228-143.184l163.871 94.094 9.34 20.94c2.81 6.31 10.2 9.14 16.51 6.32 6.3-2.81 9.13-10.2 6.32-16.5l-12.66-28.38-167.9-96.194c55.987-71.31 111.505-141.977 123.641-157.424l44.097-13.468 280.709 157.379 2.483 11.487c.283 1.306.765 2.516 1.4 3.614 2.612 4.671 8.05 7.305 13.551 6.116 6.748-1.459 11.035-8.112 9.576-14.859zm-964.457-179.09 49.58-39.22 48.34 89.14-49.59 36.3zm44.27 89.2-42.68 31.24-47.82-83.85 42.26-33.44zm9.28-131.57 35.46-28.06 46.95 92.5-33.97 24.87zm44.18-32.98 68.38-24.62 42.31 98.56-63.51 19.02zm73.09-26.32 72.72-26.18c12.88 34.33 26.81 71.46 39.1 104.22l-69.4 20.78zm77.43-27.87 71.87-25.87c11.5 34.78 24.19 73.2 36.24 109.71l-68.92 20.63c-12.25-32.67-26.25-69.96-39.19-104.47zm76.58-27.57 62.86-22.63 33.84 114.52-60.37 18.08c-12.75-38.63-25.24-76.46-36.33-109.97zm176.15 78.55 69.05-20.68 20.23 73.16-68.1 20.76zm16.4 74.7-66.51 20.28-21.72-73.48 67.04-20.07zm-19.18-84.31-34.41-118.97 69.49-25.01 34.08 123.27zm-4.79 1.43-67.09 20.09-33.92-114.79 66.68-24zm-69.05 31.11 21.72 73.5-57.68 17.59c-7.9-23.98-16.04-48.64-24.11-73.1zm-21.19 192.39 171.67-100.56c-24.06 30.63-66.02 84.04-107.92 137.4l-64.11-36.73zm258.16-184.51-66.29 20.21-20.22-73.13 67.71-20.28c6.77 26.41 13.23 51.53 18.8 73.2zm-21.29-82.89-67.89 20.33-34.16-123.54 69.28-24.94c10.03 39.39 21.73 85.11 32.77 128.15zm-65.21-258.19c1.28 5.5 2.68 11.16 4.12 16.99 1.21 4.86 2.45 9.89 3.68 15.06 3.13 13.13 11.53 46.47 22.16 88.26l-69.47 25.01-32-115.74zm-76.17 31.51 31.94 115.5-69.59 25.06-32.29-111.63zm-74.59 30.85 32.22 111.41-66.73 24.02-31.9-107.95zm-71.06 29.4 31.84 107.72-63.17 22.74c-16.08-48.59-28.8-86.87-34.37-103.28zm-70.29 29.08c5.54 16.41 18.59 55.74 34.25 103.08l-72.24 26.01c-16.41-43.75-30.66-81.75-36.8-98.15zm-79.41 32.85c6.2 16.55 20.37 54.35 36.72 97.93l-73.16 26.34-39.81-92.72zm-149.67 61.92 68.8-28.46 39.72 92.5-68.99 24.84-44.07-86.83c1.49-.72 3-1.41 4.54-2.05zm-21.2 12.74c2.53-2.09 5.18-4.02 7.93-5.79l44.03 86.75-35.68 28.23-45.96-84.72zm-33.61 27.71 45.91 84.63-49.69 39.31-46.31-82.63zm-54.01 44.54 46.26 82.54-42.32 33.49-46.27-81.12zm-72.87 60.09 26.63-21.95 46.21 81.03-26.13 20.68zm51.81 88.47 26.04-20.6 47.73 83.68-25.78 18.88zm93.77 148.16c-1.83 1.21-3.44 2.47-4.81 3.76l-35.89-61.29 25.68-18.81 35.68 62.57zm24.84-16.55-35.8-62.76 42.62-31.2 36.49 65.1zm47.49-31.64-36.6-65.29 49.47-36.22 37.03 68.26zm54.08-36.03-37.14-68.46 33.75-24.7 36.19 71.3zm41.45-26.92-35.88-70.68 62.88-18.83 30.86 71.87zm62.67-19.11-30.85-71.84 68.95-20.65c11.8 31.45 21.75 57.94 27.24 72.58zm70.13-21.38c-4.99-13.3-15.06-40.12-27.23-72.54l68.54-20.52c8.7 26.37 16.98 51.46 24.12 73.12zm4.31 317.5-116.18 65.12c2.37-7.47 6.18-15.72 11.79-25.31 26.98-46.16 131.46-213.07 148.76-240.68l32.12-10.31 52.47 30.12c-51.59 65.72-99.68 127.04-110.02 140.38-8.38 10.81-13.99 24.41-16.57 39.72-.81.21-1.6.53-2.37.96z" fill="#8487f6"/><path d="m540.739 1021.058c-18.54-3.83-36.44-25.34-39.99-48.04s8.6-38 27.14-34.17 36.44 25.34 39.99 48.04-8.6 38-27.14 34.17z" fill="#defe48"/><path d="m500.354 925.765c.115-.097.248-.17.374-.254.5-.335 1.007-.66 1.529-.962l-24.279 14.066c-47.952 27.772 15.853 138.777 64.116 110.813l24.279-14.066c-46.205 20.19-104.245-77.456-66.018-109.597z" fill="#031447"/><path d="m582.049 989.819c-5.04-32.29-30.51-62.87-56.87-68.32-26.37-5.44-43.65 16.31-38.6 48.6 5.04 32.28 30.51 62.86 56.88 68.31 26.36 5.44 43.64-16.31 38.59-48.59zm-41.31 31.24c-18.54-3.83-36.44-25.34-39.99-48.04s8.6-38 27.14-34.17 36.44 25.34 39.99 48.04-8.6 38-27.14 34.17z" fill="#fff"/><path d="m551.258 1040.732c-2.624 0-5.333-.283-8.103-.854-26.895-5.559-52.939-36.758-58.059-69.548-2.818-18.021 1.113-33.642 10.787-42.86 7.537-7.181 18.049-9.822 29.598-7.441 26.888 5.56 52.928 36.765 58.049 69.558 2.819 18.016-1.113 33.635-10.786 42.852-5.727 5.458-13.174 8.293-21.486 8.293zm-34.025-118.579c-7.507 0-14.078 2.532-19.28 7.489-8.951 8.529-12.557 23.19-9.893 40.225 4.942 31.658 29.93 61.747 55.702 67.073 10.704 2.21 20.012-.098 26.913-6.673 8.951-8.528 12.556-23.186 9.892-40.216-4.942-31.663-29.925-61.756-55.692-67.083-2.637-.544-5.189-.814-7.642-.814zm28.999 100.986c-1.877 0-3.816-.202-5.797-.612-19.067-3.939-37.536-26.044-41.168-49.277-2.005-12.818.809-23.946 7.721-30.53 5.409-5.152 12.937-7.051 21.205-5.341 19.067 3.939 37.536 26.044 41.168 49.277 2.004 12.819-.81 23.946-7.721 30.53-4.112 3.917-9.451 5.952-15.407 5.952zm-23.927-83.385c-5.163 0-9.677 1.737-13.248 5.139-6.188 5.895-8.677 16.062-6.826 27.894 3.456 22.1 20.867 43.096 38.812 46.803 7.377 1.524 13.786-.059 18.528-4.575 6.189-5.895 8.677-16.062 6.827-27.894-3.456-22.1-20.867-43.096-38.812-46.803-1.822-.376-3.586-.563-5.28-.563z" fill="#031447"/><path d="m1109.161 730.006c-17.234-2.209-35.117-20.642-39.953-41.167-4.835-20.524 5.214-35.375 22.448-33.166s35.117 20.642 39.953 41.167c4.835 20.524-5.214 35.375-22.448 33.166z" fill="#defe48"/><path d="m1065.544 645.625c.099-.097.215-.173.324-.259.434-.342.876-.674 1.332-.987l-21.234 14.569c-41.94 28.766 24.206 125.887 66.418 96.924l21.234-14.569c-40.871 21.705-100.809-63.595-68.073-95.678z" fill="#031447"/><path d="m1144.781 698.531c-6.869-29.197-32.314-55.4-56.817-58.545-24.512-3.135-38.804 17.976-31.926 47.172 6.868 29.187 32.313 55.391 56.826 58.535 24.502 3.136 38.795-17.976 31.918-47.162zm-35.62 31.475c-17.234-2.209-35.117-20.642-39.953-41.167-4.835-20.524 5.214-35.375 22.448-33.166s35.117 20.642 39.953 41.167c4.835 20.524-5.214 35.375-22.448 33.166z" fill="#fff"/><path d="m1117.525 747.497c-1.583 0-3.202-.104-4.853-.316-25.046-3.213-51.108-29.985-58.095-59.68-3.848-16.334-1.332-30.945 6.904-40.086 6.423-7.129 15.894-10.297 26.672-8.917 25.041 3.214 51.098 29.993 58.086 59.689 3.848 16.33 1.332 30.938-6.904 40.079-5.438 6.036-13.062 9.231-21.812 9.231zm-34.35-106.325c-7.896 0-14.562 2.809-19.465 8.251-7.567 8.4-9.832 22.028-6.213 37.391 6.725 28.579 31.647 54.325 55.557 57.392 9.908 1.268 18.227-1.48 24.054-7.948 7.567-8.399 9.832-22.024 6.213-37.382-6.725-28.583-31.643-54.333-55.548-57.402-1.574-.201-3.108-.301-4.598-.301zm29.273 90.548c-1.135 0-2.295-.075-3.479-.227-17.77-2.278-36.262-21.258-41.222-42.311-2.74-11.63-.932-22.05 4.96-28.588 4.616-5.123 11.41-7.4 19.138-6.409 17.771 2.278 36.263 21.259 41.222 42.311 2.74 11.63.932 22.05-4.96 28.588-3.91 4.339-9.384 6.636-15.66 6.636zm-24.158-74.768c-5.421 0-9.995 1.924-13.353 5.65-5.224 5.797-6.78 15.234-4.269 25.893 4.697 19.937 22.05 37.89 38.684 40.022 6.814.873 12.533-1.007 16.528-5.442 5.224-5.796 6.779-15.234 4.269-25.892-4.696-19.936-22.05-37.891-38.684-40.023-1.087-.139-2.146-.208-3.175-.208z" fill="#031447"/><path d="m710.884 54.078c9.391 1.304 28.174 7.826 36.783 24.783 8.304-6.737 27.414-26.137 41.353-40.558 8.808-9.112 7.976-23.795-1.807-31.851-8.55-7.041-21.03-6.517-28.96 1.216l-43.847 42.759-3.522 3.652z" fill="#fff"/><path d="m747.666 80.361c-.104 0-.208-.011-.313-.033-.443-.095-.82-.384-1.025-.788-8.203-16.157-26.269-22.673-35.651-23.976-.559-.078-1.027-.462-1.211-.996-.185-.534-.054-1.125.337-1.531l3.522-3.652 43.88-42.792c8.493-8.282 21.803-8.841 30.961-1.299 4.984 4.104 8.053 10.155 8.418 16.6.366 6.447-1.998 12.808-6.487 17.451-14.35 14.845-33.196 33.954-41.487 40.681-.27.219-.604.335-.945.335zm-33.746-27.271c10.054 2.11 25.913 8.846 34.197 23.442 8.767-7.485 26.294-25.274 39.824-39.271 3.966-4.103 5.973-9.5 5.649-15.196-.323-5.695-2.927-10.828-7.331-14.455-7.974-6.565-19.563-6.08-26.959 1.131l-43.848 42.759-1.533 1.59z" fill="#031447"/></svg>