<svg xmlns="http://www.w3.org/2000/svg"  viewBox="0 0 48 48" width="50px" height="50px"><path fill="#f3ad20" d="M11.3,45.563c1.167-1.044,2.569-2.172,4.061-2.648s3.739-0.48,4.702,0.755 c1.243-2.878,4.136-5.253,6.5-7.311c6.093-5.303,11.919-10.913,17.45-16.8c0.081-0.087,0.164-0.176,0.211-0.285 c0.109-0.252,0.004-0.54-0.083-0.801c-0.631-1.909-0.789-3.637,1.431-5.904c-0.038-0.278-0.169-0.545-0.207-0.822 c-0.711-0.062-1.421-0.124-2.132-0.186c-0.05-0.004-0.103-0.01-0.141-0.043c-0.048-0.042-0.056-0.112-0.059-0.176 c-0.022-0.498,0.046-0.999,0.199-1.473c-0.797-0.201-1.594-0.403-2.39-0.604c0.109-0.551,0.218-1.102,0.327-1.653 c0.014-0.071,0.027-0.148-0.009-0.211c-0.045-0.08-0.148-0.101-0.239-0.114c-0.627-0.088-1.26-0.142-1.893-0.161 c-0.096-0.003-0.204-0.01-0.27-0.08c-0.056-0.06-0.066-0.15-0.068-0.232c-0.015-0.48,0.09-0.964,0.305-1.394 c-0.8-0.132-1.599-0.263-2.399-0.395c0.021-0.488-0.041-0.971,0.087-1.443c-1.29,1.231-5.697,2.231-8.08,0.959 c-0.428-0.228-2.048,2.35-3.351,3.967C19.06,16.196,11.649,22.903,3.594,28.611c1.266,0.601,1.943,2.895,1.571,4.246 c-0.372,1.351-1.346,2.544-2.285,3.584c0.348,0.27,0.763,0.544,1.199,0.599c-0.207,0.473-0.328,0.983-0.354,1.499 c0.862,0.263,1.734,0.491,2.614,0.682c-0.156,0.59-0.257,1.194-0.303,1.803c-0.003,0.04-0.005,0.084,0.017,0.117 c0.026,0.039,0.076,0.052,0.122,0.062c0.687,0.15,1.374,0.3,2.061,0.451c-0.204,0.56-0.295,1.16-0.265,1.755 c0.694-0.017,1.389,0.011,2.08,0.084c-0.093,0.635-0.187,1.27-0.28,1.904C10.191,45.592,10.839,45.604,11.3,45.563z"/><path fill="#ef4823" d="M22.742,39.866c-1.742,2.124-1.672,1.474-2.682,3.804c-0.96-1.23-3.21-1.23-4.7-0.75 c-1.49,0.47-2.89,1.6-4.06,2.64c-0.46,0.04-1.11,0.03-1.53-0.16c0.09-0.64,0.19-1.27,0.28-1.91c-0.69-0.07-1.38-0.1-2.08-0.08 c-0.03-0.6,0.06-1.2,0.27-1.76c-0.69-0.15-1.38-0.3-2.06-0.45c-0.05-0.01-0.1-0.02-0.13-0.06c-0.02-0.03-0.02-0.08-0.01-0.12 c0.04-0.6,0.14-1.21,0.3-1.8c-0.88-0.19-1.75-0.42-2.61-0.68c0.02-0.52,0.14-1.03,0.35-1.5c-0.44-0.05-0.85-0.33-1.2-0.6 c0.94-1.04,1.91-2.23,2.29-3.58c0.37-1.35-0.309-3.645-1.579-4.245c2.3-1.63,1.562-0.703,3.712-2.543L22.742,39.866z"/><path fill="#010101" d="M22.657,35.255c-0.044,0-0.089-0.006-0.133-0.018c-0.267-0.073-0.423-0.349-0.35-0.615 c0.041-0.149,0.076-0.3,0.106-0.451c-0.121,0.026-0.242,0.05-0.364,0.069c-0.233,0.032-0.465-0.098-0.548-0.321 c-0.083-0.225,0.005-0.476,0.209-0.6c0.257-0.156,0.531-0.284,0.816-0.383c-0.004-0.521-0.075-1.04-0.211-1.546 c-0.06-0.223,0.04-0.457,0.242-0.568c0.201-0.108,0.454-0.069,0.609,0.1c0.393,0.429,0.815,0.829,1.262,1.2 c0.031-0.024,0.062-0.05,0.093-0.076c0-0.011,0.001-0.021,0.002-0.033c0.04-0.323,0.347-0.48,0.628-0.491 c0.262,0.014,0.521,0.277,0.527,0.54c0.008,0.353-0.25,0.54-0.359,0.62c-0.025,0.022-0.05,0.044-0.075,0.065 c0.137,0.098,0.277,0.191,0.418,0.283c0.215,0.14,0.29,0.42,0.173,0.648c-0.118,0.228-0.388,0.33-0.627,0.237 c-0.45-0.177-0.939-0.248-1.422-0.22c-0.102,0.049-0.205,0.095-0.309,0.138c-0.042,0.354-0.11,0.707-0.206,1.054 C23.077,35.109,22.876,35.255,22.657,35.255z"/><path fill="#010101" d="M28.462,30.485c-0.169,0-0.333-0.086-0.427-0.239c-0.019-0.03-0.034-0.063-0.046-0.097 c-0.187-0.464-0.344-0.938-0.473-1.419l-0.006,0.005c-0.04,0.035-0.084,0.066-0.133,0.091c-0.231,0.114-0.513,0.038-0.649-0.182 c-0.029-0.046-0.049-0.096-0.062-0.146c-0.053-0.043-0.098-0.097-0.131-0.16c-0.11-0.213-0.053-0.475,0.135-0.623 c0.092-0.072,0.2-0.115,0.312-0.127c0.091-0.025,0.182-0.049,0.274-0.07c-0.039-0.237-0.071-0.477-0.096-0.717 c-0.021-0.197,0.077-0.389,0.25-0.486c0.172-0.098,0.388-0.086,0.546,0.034c0.18,0.134,0.373,0.253,0.573,0.358l0.935-0.71 c0.22-0.168,0.533-0.124,0.701,0.097c0.167,0.22,0.124,0.533-0.096,0.7l-0.465,0.354c0.411,0.132,0.83,0.236,1.235,0.332 c0.097,0.021,0.192,0.043,0.288,0.067c0.266,0.067,0.428,0.336,0.363,0.603c-0.064,0.267-0.332,0.43-0.599,0.369 c-0.09-0.021-0.181-0.042-0.272-0.063c-0.715-0.152-1.447-0.192-2.173-0.124c0.127,0.499,0.287,0.989,0.48,1.467 c0.097,0.241-0.007,0.518-0.239,0.634C28.614,30.468,28.538,30.485,28.462,30.485z"/><path fill="#010101" d="M33.438,25.8c-0.245,0-0.458-0.18-0.495-0.429l-0.104-0.728c-0.002,0.002-0.005,0.003-0.007,0.004 c-0.239,0.137-0.541,0.057-0.68-0.181c-0.139-0.235-0.062-0.539,0.173-0.681c0.035-0.021,0.07-0.042,0.105-0.062 c0.085-0.051,0.17-0.104,0.253-0.158l-0.157-1.091c-0.076-0.528,0.22-0.737,0.351-0.802c0.15-0.073,0.448-0.147,0.802,0.148 l0.505,0.419c0.175-0.207,0.338-0.423,0.488-0.648c0.152-0.231,0.462-0.292,0.693-0.141c0.23,0.153,0.293,0.463,0.14,0.693 c-0.169,0.255-0.353,0.5-0.551,0.733l0.566,0.47c0.175,0.146,0.23,0.39,0.134,0.596c-0.095,0.206-0.317,0.321-0.542,0.281 c-0.435-0.079-0.887-0.064-1.317,0.033l0.14,0.97c0.039,0.273-0.15,0.526-0.424,0.566C33.486,25.798,33.462,25.8,33.438,25.8z"/><path fill="#010101" d="M12.96,27.198c-0.135,0-0.27-0.055-0.368-0.162c-0.187-0.203-0.173-0.52,0.03-0.706 c4.19-3.852,8.273-7.92,12.133-12.091c0.188-0.203,0.504-0.215,0.707-0.027c0.203,0.188,0.215,0.504,0.027,0.707 c-3.879,4.19-7.98,8.277-12.19,12.147C13.203,27.154,13.082,27.198,12.96,27.198z"/><path fill="#010101" d="M15.092,29.743c-0.131,0-0.263-0.052-0.361-0.154c-0.191-0.199-0.185-0.516,0.015-0.706l4.659-4.471 c1.872-1.796,3.807-3.653,5.67-5.517c0.195-0.195,0.512-0.195,0.707,0s0.195,0.512,0,0.707c-1.87,1.871-3.81,3.731-5.685,5.53 l-4.659,4.471C15.341,29.697,15.216,29.743,15.092,29.743z"/><path fill="#010101" d="M17.831,31.654c-0.132,0-0.264-0.052-0.362-0.155c-0.19-0.199-0.183-0.516,0.017-0.707l5.33-5.082 c0.2-0.191,0.517-0.185,0.707,0.017c0.19,0.199,0.183,0.516-0.017,0.706l-5.33,5.084C18.079,31.608,17.955,31.654,17.831,31.654z"/><path fill="#010101" d="M29.134,12.409c0.824,0.737,1.648,1.474,2.471,2.211c0.478,0.428,1.188-0.277,0.707-0.707 c-0.824-0.737-1.648-1.474-2.471-2.211C29.363,11.274,28.654,11.979,29.134,12.409L29.134,12.409z"/><path fill="#010101" d="M33.541,16.376c0.775,0.767,1.549,1.535,2.324,2.302c0.458,0.453,1.165-0.253,0.707-0.707 c-0.775-0.767-1.549-1.535-2.324-2.302C33.79,15.216,33.083,15.922,33.541,16.376L33.541,16.376z"/><path fill="#010101" d="M46.068,12.502c-0.022-0.165-0.071-0.328-0.122-0.491c-0.034-0.109-0.07-0.219-0.086-0.331 c-0.032-0.23-0.219-0.409-0.451-0.43l-1.879-0.165c0.007-0.36,0.067-0.717,0.178-1.063c0.042-0.131,0.028-0.274-0.039-0.395 c-0.067-0.121-0.181-0.209-0.314-0.242l-1.93-0.487L41.66,7.71c0.02-0.099,0.065-0.328-0.063-0.553 c-0.17-0.305-0.498-0.351-0.605-0.365c-0.581-0.081-1.172-0.135-1.8-0.161c0.013-0.343,0.099-0.681,0.252-0.987 c0.071-0.143,0.07-0.31-0.002-0.451s-0.208-0.24-0.364-0.266l-1.977-0.325c0-0.008,0-0.017,0-0.024 c-0.003-0.31-0.005-0.603,0.065-0.863c0.059-0.216-0.034-0.445-0.227-0.561c-0.192-0.113-0.438-0.087-0.601,0.068 c-1.205,1.149-5.366,2.02-7.499,0.879c-0.68-0.358-1.323,0.519-2.736,2.449c-0.414,0.565-0.842,1.151-1.24,1.646 C18.97,15.511,11.716,22.242,3.305,28.203c-0.145,0.103-0.225,0.274-0.209,0.451c0.015,0.177,0.124,0.333,0.284,0.409 c1.014,0.48,1.613,2.536,1.304,3.661c-0.338,1.229-1.245,2.353-2.174,3.382c-0.093,0.104-0.139,0.24-0.127,0.379 s0.082,0.266,0.192,0.352c0.236,0.184,0.525,0.388,0.852,0.531c-0.113,0.371-0.181,0.755-0.201,1.146 c-0.012,0.229,0.134,0.437,0.354,0.504c0.709,0.216,1.433,0.41,2.157,0.58c-0.097,0.457-0.164,0.921-0.198,1.383 c-0.006,0.071-0.022,0.258,0.098,0.437c0.141,0.212,0.362,0.259,0.432,0.273l1.535,0.336c-0.11,0.46-0.155,0.938-0.131,1.407 c0.014,0.271,0.235,0.487,0.511,0.475c0.501-0.013,1.002,0,1.496,0.035l-0.203,1.381c-0.032,0.219,0.083,0.434,0.285,0.526 c0.403,0.187,0.917,0.23,1.313,0.23c0.193,0,0.359-0.011,0.469-0.021c0.107-0.009,0.209-0.054,0.29-0.125 c1.123-1.005,2.462-2.093,3.88-2.544c1.457-0.465,3.408-0.373,4.156,0.586c0.108,0.139,0.28,0.209,0.458,0.188 c0.175-0.022,0.326-0.136,0.396-0.298c1.114-2.579,3.647-4.774,5.883-6.711l0.486-0.422C32.975,31.441,38.857,25.777,44.38,19.9 c0.1-0.107,0.223-0.239,0.304-0.428c0.179-0.415,0.044-0.822-0.067-1.156c-0.548-1.659-0.828-3.21,1.313-5.396 C46.039,12.81,46.09,12.655,46.068,12.502z M19.908,42.835c-1.319-0.955-3.438-0.798-4.699-0.396 c-1.54,0.491-2.938,1.595-4.114,2.637c-0.283,0.018-0.549,0.002-0.767-0.034l0.217-1.477c0.02-0.134-0.016-0.271-0.1-0.379 s-0.207-0.176-0.342-0.19c-0.535-0.057-1.081-0.087-1.627-0.091c0.026-0.369,0.104-0.735,0.229-1.08 c0.049-0.135,0.038-0.285-0.032-0.412c-0.069-0.126-0.19-0.217-0.331-0.247l-1.782-0.391c0.051-0.481,0.139-0.96,0.262-1.426 c0.035-0.132,0.014-0.272-0.057-0.389c-0.071-0.116-0.187-0.199-0.32-0.228c-0.73-0.159-1.462-0.345-2.182-0.555 c0.05-0.322,0.141-0.636,0.273-0.937c0.063-0.145,0.055-0.311-0.023-0.447c-0.078-0.138-0.215-0.23-0.372-0.25 c-0.17-0.021-0.346-0.098-0.514-0.194c0.873-1.007,1.674-2.108,2.019-3.36c0.367-1.332-0.122-3.352-1.193-4.378 c0.997-0.715,1.976-1.442,2.94-2.179c0.047,0.064,0.095,0.129,0.143,0.192c0.033,0.079,0.086,0.149,0.156,0.203 c0.3,0.385,0.633,0.74,0.961,1.1l-0.854,0.577c-0.143,0.097-0.41,0.276-0.514,0.599c-0.153,0.479,0.144,0.873,0.344,1.139 c0.442,0.591,0.621,1.422,0.489,2.279c-0.115,0.75-0.446,1.514-1.012,2.336c-0.138,0.2-0.394,0.572-0.272,1.016 c0.063,0.227,0.208,0.387,0.287,0.474c0.701,0.769,1.556,1.375,2.383,1.963c1.173,0.833,2.281,1.62,2.895,2.791 c0.088,0.168,0.26,0.269,0.443,0.269c0.043,0,0.086-0.006,0.129-0.017c0.837-0.224,1.386-0.576,1.827-0.858 c0.637-0.408,1.023-0.654,1.992-0.438c0.039,0.01,0.139,0.039,0.272,0.079c1.333,0.392,1.535,0.413,1.749,0.327 c0.291-0.116,0.452-0.36,0.55-0.508l1.058-1.61c0.519,0.529,1.028,1.066,1.526,1.612c0.006,0.007,0.015,0.009,0.021,0.015 C21.16,40.867,20.44,41.814,19.908,42.835z M8.406,29.611c-0.056-0.075-0.152-0.207-0.181-0.173 c0.02-0.026,0.103-0.082,0.134-0.104l0.987-0.667c1.385,1.388,2.926,2.621,4.442,3.817c0.594,0.469,1.187,0.938,1.769,1.414 c1.434,1.175,2.814,2.43,4.141,3.738c-0.009,0.012-0.022,0.018-0.031,0.031l-1.142,1.738c-0.014,0.02-0.035,0.052-0.053,0.079 c-0.29-0.062-0.903-0.242-1.128-0.309c-0.167-0.049-0.292-0.085-0.333-0.095c-1.378-0.31-2.047,0.118-2.753,0.571 c-0.343,0.22-0.695,0.445-1.183,0.621c-0.743-1.182-1.884-1.993-2.992-2.779c-0.784-0.557-1.595-1.133-2.222-1.82 c-0.012-0.014-0.043-0.047-0.056-0.039c0.019-0.056,0.095-0.167,0.125-0.211c0.654-0.948,1.039-1.849,1.177-2.75 C9.279,31.553,9.033,30.448,8.406,29.611z M43.68,18.669c0.042,0.128,0.114,0.342,0.085,0.408c-0.013,0.029-0.073,0.094-0.116,0.14 c-0.939,0.999-1.901,1.982-2.86,2.968c-0.497-0.458-0.995-0.915-1.492-1.373c-0.238-0.219-0.503-0.428-0.723-0.665 c-0.157-0.169-0.252-0.379-0.501-0.421c-0.253-0.042-0.555,0.064-0.615,0.349c-0.003,0.015-0.006,0.03-0.009,0.045 c-0.056,0.268,0.076,0.52,0.339,0.609c0.673,0.79,1.537,1.478,2.306,2.177c-4.446,4.534-9.087,8.922-13.859,13.076l-0.484,0.42 c-1.025,0.888-2.108,1.83-3.104,2.844c-1.998-2.187-4.17-4.246-6.457-6.12c-0.587-0.48-1.185-0.953-1.783-1.426 c-2.097-1.655-4.261-3.363-5.907-5.463c-0.019-0.118-0.065-0.234-0.137-0.339c-0.036-0.051-0.088-0.081-0.132-0.122 c6.541-5.091,12.296-10.669,17.15-16.642c0.732,0.611,1.463,1.222,2.195,1.833c0.491,0.41,1.202-0.294,0.707-0.707 c-0.76-0.635-1.52-1.27-2.281-1.905c0.301-0.392,0.607-0.803,0.909-1.216c0.556-0.759,1.297-1.771,1.642-2.063 c2.181,1.031,5.645,0.485,7.548-0.5c0,0.003,0,0.006,0,0.01c0.001,0.139,0.002,0.278-0.003,0.418 c-0.011,0.253,0.168,0.474,0.418,0.515l1.797,0.296c-0.091,0.329-0.132,0.673-0.121,1.017c0.003,0.097,0.012,0.353,0.203,0.557 c0.211,0.226,0.498,0.234,0.619,0.238c0.532,0.017,1.068,0.058,1.619,0.128l-0.28,1.415c-0.051,0.261,0.11,0.517,0.368,0.581 l1.903,0.48c-0.075,0.373-0.105,0.753-0.088,1.136c0.004,0.086,0.016,0.349,0.235,0.534c0.158,0.134,0.338,0.151,0.421,0.159 l1.772,0.155c0.009,0.031,0.019,0.062,0.029,0.093c0.011,0.037,0.023,0.074,0.034,0.111C42.933,14.656,42.952,16.466,43.68,18.669z"/><path fill="#010101" d="M30.603,8.082c3.534,3.022,7.002,6.118,10.403,9.288c0.47,0.438,1.179-0.267,0.707-0.707 c-3.401-3.171-6.869-6.267-10.403-9.288C30.823,6.958,30.113,7.663,30.603,8.082L30.603,8.082z"/></svg>