<svg width="52" height="50" viewBox="0 0 52 50" fill="none" xmlns="http://www.w3.org/2000/svg">
<path d="M43.4582 24.499C43.4582 25.6553 42.8107 26.6728 41.8703 27.197L33.8536 31.6524L27.0703 24.499L33.8536 17.3457L41.8703 21.8011C42.8107 22.3253 43.4582 23.3428 43.4582 24.499Z" fill="#FFC107"/>
<path d="M27.0717 24.499L10.4217 42.0586C9.86672 41.5036 9.54297 40.7482 9.54297 39.9157V9.08237C9.54297 8.24987 9.86672 7.49445 10.4217 6.93945L27.0717 24.499Z" fill="#03A9F4"/>
<path d="M27.0719 24.5L33.8552 31.6533L14.1219 42.6146C13.6748 42.8612 13.166 43 12.6265 43C11.7631 43 10.9769 42.6454 10.4219 42.0596L27.0719 24.5Z" fill="#F44336"/>
<path d="M33.8552 17.3467L27.0719 24.5L10.4219 6.94042C10.9769 6.35458 11.7631 6 12.6265 6C13.166 6 13.6748 6.13875 14.1219 6.38542L33.8552 17.3467Z" fill="#4CAF50"/>
</svg>
