<svg width="30" height="30" viewBox="0 0 30 30" fill="none" xmlns="http://www.w3.org/2000/svg">
<path d="M25.5654 9.78447C25.4424 9.86147 22.5144 11.4865 22.5144 15.0895C22.6524 19.1985 26.2094 20.6395 26.2704 20.6395C26.2094 20.7165 25.7334 22.6025 24.3234 24.5795C23.2044 26.2825 21.9624 27.9995 20.0764 27.9995C18.2824 27.9995 17.6384 26.8645 15.5684 26.8645C13.3454 26.8645 12.7164 27.9995 11.0144 27.9995C9.12841 27.9995 7.79441 26.1905 6.61441 24.5035C5.08141 22.2955 3.77841 18.8305 3.73241 15.5035C3.70141 13.7405 4.03941 12.0075 4.89741 10.5355C6.10841 8.48047 8.27041 7.08547 10.6314 7.03947C12.4404 6.97847 14.0504 8.28147 15.1544 8.28147C16.2124 8.28147 18.1904 7.03947 20.4284 7.03947C21.3944 7.04047 23.9704 7.33147 25.5654 9.78447ZM15.0014 6.68747C14.6794 5.07747 15.5684 3.46747 16.3964 2.44047C17.4544 1.19847 19.1254 0.355469 20.5664 0.355469C20.6584 1.96547 20.0754 3.54447 19.0334 4.69447C18.0984 5.93647 16.4884 6.87147 15.0014 6.68747Z" fill="white"/>
</svg>
