<svg xmlns="http://www.w3.org/2000/svg"  viewBox="0 0 64 64" width="50px" height="50px"><linearGradient id="l1epLj_0OoZiy54K_U1Ica" x1="31.5" x2="31.5" y1="10" y2="55" gradientUnits="userSpaceOnUse"><stop offset="0" stop-color="#6dc7ff"/><stop offset="1" stop-color="#e6abff"/></linearGradient><path fill="url(#l1epLj_0OoZiy54K_U1Ica)" d="M31.5,10C19.074,10,9,20.074,9,32.5C9,44.926,19.074,55,31.5,55C43.926,55,54,44.926,54,32.5	C54,20.074,43.926,10,31.5,10z M31,46c-4.971,0-9-4.029-9-9c0-4.971,4.029-9,9-9c4.971,0,9,4.029,9,9C40,41.971,35.971,46,31,46z"/><linearGradient id="l1epLj_0OoZiy54K_U1Icb" x1="32" x2="32" y1="8" y2="56" gradientUnits="userSpaceOnUse"><stop offset="0" stop-color="#1a6dff"/><stop offset="1" stop-color="#c822ff"/></linearGradient><path fill="url(#l1epLj_0OoZiy54K_U1Icb)" d="M32,8c-8.592,0-13.328,2.684-16.83,5.31c-3.841,2.881-6.794,7.813-6.918,8.022l2.18,1.295	C9.133,24.931,8,28.069,8,32c0,1.836,0.227,3.617,0.619,5.336c0.018,0.094,0.023,0.19,0.042,0.282l0.029-0.006	c2.402,9.972,11.029,17.522,21.533,18.298c0.58,0.058,1.16,0.09,1.74,0.09v-0.002C31.976,55.998,31.988,56,32,56	c13.234,0,24-10.766,24-24S45.234,8,32,8z M30.79,44c-3.966-0.006-7.19-3.233-7.19-7.2c0-3.971,3.229-7.2,7.2-7.2	c2.108,0,3.743,0.836,4.994,2.558c0.68,0.936,1.978,4.027-0.163,7.051l1.944,1.376c-1.546,2.276-4.213,3.341-6.562,3.402	C30.938,43.99,30.866,44,30.79,44z M40.392,30.522c-2.728-4.126-7.115-6.871-11.968-6.871C20.47,23.65,14,30.099,14,38.025	c0,0.545,0.04,1.069,0.082,1.592l-0.88,0.306c-0.449-1.062-0.793-2.177-1.058-3.322c-0.762-4.046,0.294-8.44,2.807-11.534	C17.642,21.752,21.852,20,27.123,20c7.223,0,12.577,4.96,14.053,10.248L40.392,30.522z M32,52.4c-0.492,0-0.973-0.04-1.457-0.074	c-6.512-0.634-12.943-5.597-12.943-14.3c0-4.613,2.933-8.546,7.034-10.08C21.837,29.899,20,33.136,20,36.8	c0,5.95,4.836,10.789,10.782,10.799V47.6c0.004,0,0.006,0,0.01,0s0.006,0,0.01,0c0.349,0,0.706-0.023,1.064-0.055	C39.309,46.986,45.2,40.74,45.2,33.126c0-7.91-7.424-16.726-18.077-16.726c-6.046,0-10.098,1.949-12.749,4.154l-0.72-0.66	c1.016-1.272,2.292-2.668,3.674-3.704c3.18-2.384,7.157-4.59,14.671-4.59c11.249,0,20.4,9.151,20.4,20.4S43.249,52.4,32,52.4z"/></svg>